<svg id="Layer_1" data-name="Layer 1" xmlns="http://www.w3.org/2000/svg" viewBox="0 0 1440 550"><defs><style>.cls-1{fill:#72bfb9;}.cls-2{fill:#16afbe;}.cls-3{fill:#e0e0ea;}.cls-4{fill:#fff;}.cls-5{fill:#ce4b3e;}.cls-6{fill:#0d5270;}.cls-7{fill:#d2e9f7;}.cls-8{fill:#eaeae9;}.cls-9{fill:#f05a2a;}.cls-10{fill:#e7f3e9;}.cls-11{fill:#0a333f;}.cls-12{fill:#ec602d;}.cls-13{fill:#f1b82b;}.cls-14{fill:#133849;}.cls-15{fill:#2c5871;}.cls-16{fill:#da4643;}.cls-17{fill:#b73939;}.cls-18{fill:#f6f7f7;}.cls-19{fill:#0b3654;}</style></defs><title>contactus1</title><rect class="cls-1" y="0.06" width="1439.92" height="549.94"/><path class="cls-2" d="M716.8,244.28l27.5,22.19c-.13,0-.6,2.39-.75,2.39L740,282.28,694,281.44,690.17,268c-.14,0-.75-1.52-.88-1.54Z"/><rect class="cls-3" x="694.47" y="255.36" width="43.87" height="24.88"/><path class="cls-4" d="M741.9,282.28h-1.07V254.91a1.66,1.66,0,0,0-1.8-1.44H694.55a1.67,1.67,0,0,0-1.81,1.44v27.37h-1.18a2.39,2.39,0,0,0-2.4,2.4v14.6a2.39,2.39,0,0,0,2.4,2.4H741.9a2.39,2.39,0,0,0,2.39-2.4v-14.6a2.39,2.39,0,0,0-2.39-2.4Zm-43.17-26.43h36.11a2.12,2.12,0,1,1,0,4.13H698.73a2.12,2.12,0,1,1,0-4.13Zm0,6h36.11a2.12,2.12,0,1,1,0,4.13H698.73a2.38,2.38,0,0,1-2.6-2.06,2.42,2.42,0,0,1,2.6-2.11Zm0,6h36.11a2.12,2.12,0,1,1,0,4.13H698.73a2.14,2.14,0,1,1,0-4.17Zm0,6h36.11a2.12,2.12,0,1,1,0,4.12H698.73a2.37,2.37,0,0,1-2.6-2.06,2.4,2.4,0,0,1,2.6-2.1Z"/><path class="cls-5" d="M724.28,283.16l-6.73,5.59a1.17,1.17,0,0,1-.74.26,1.12,1.12,0,0,1-.73-.26l-6.73-5.59-18.43,18.43a2.14,2.14,0,0,0,.56.11h50.67a2.14,2.14,0,0,0,.56-.11Z"/><path class="cls-5" d="M744.45,267.16a2.29,2.29,0,0,0-.14-.69l-18.25,15.21L744.34,300a2.14,2.14,0,0,0,.11-.56Z"/><path class="cls-5" d="M689.32,266.47a2.29,2.29,0,0,0-.14.69V299.4a2.14,2.14,0,0,0,.11.56l18.28-18.28Z"/><polygon class="cls-6" points="750.82 293.23 733.13 288.44 739.07 305.74 741.71 299.2 747.12 304.5 748.61 302.99 750.14 301.34 744.71 296.19 750.82 293.23"/><polygon class="cls-7" points="734.02 287.81 739.53 303.84 741.97 297.78 746.99 302.69 748.37 301.29 734.02 287.81"/><polygon class="cls-4" points="734.02 287.81 750.42 292.25 744.75 294.99 749.79 299.76 748.37 301.29 734.02 287.81"/><path class="cls-4" d="M800.06,245.48a1.21,1.21,0,0,1,.12,1.05c-.08.18-.42.26-.8.19s-.69.25-.8.71a.79.79,0,0,0,.43,1c.34.07.62.64.63.84s-.23.45-.56.55a.81.81,0,0,0-.33,1c.14.44.53.73.86.63a.73.73,0,0,1,.8.12,1.14,1.14,0,0,1,0,1.05.91.91,0,0,0,1.28,1.16,1.16,1.16,0,0,1,1-.13c.19.09.27.42.2.8s.25.69.71.8a.81.81,0,0,0,1-.43c.07-.34.64-.61.84-.64s.45.24.55.56a.79.79,0,0,0,1,.34.77.77,0,0,0,.62-.86,1.18,1.18,0,0,1,.42-1c.16-.11.51,0,.76.21a.9.9,0,0,0,1.15-1.28,1.2,1.2,0,0,1-.12-1c.08-.19.42-.28.76-.2s.69-.24.8-.71a.78.78,0,0,0-.43-1c-.34-.07-.62-.65-.63-.85s.23-.44.55-.55a.79.79,0,0,0,.34-1c-.14-.46-.53-.74-.86-.63s-.86-.26-1-.42,0-.5.22-.75a.91.91,0,0,0-1.28-1.16,1.2,1.2,0,0,1-1,.13c-.19-.09-.27-.43-.2-.8s-.25-.7-.71-.8a.8.8,0,0,0-1,.43c-.07.34-.64.61-.84.63s-.44-.24-.55-.57a.81.81,0,0,0-1-.32c-.45.14-.73.52-.63.85a1.2,1.2,0,0,1-.42,1c-.16.12-.5,0-.75-.21a.91.91,0,0,0-1.16,1.28Zm3.81-.24a3.76,3.76,0,1,1-2.39,4.75v0a3.75,3.75,0,0,1,2.4-4.69Z"/><path class="cls-4" d="M793.31,240.69a.78.78,0,0,1,.08.68c0,.12-.28.17-.49.12s-.45.16-.51.46a.48.48,0,0,0,.28.62c.21.05.39.42.4.55s-.16.28-.36.35a.51.51,0,0,0-.22.65c.1.29.34.48.55.41a.52.52,0,0,1,.51.08.79.79,0,0,1,0,.67.49.49,0,0,0,.13.68.51.51,0,0,0,.69.07c.14-.17.56-.13.67-.08s.17.27.13.48.16.45.45.51.58-.05.62-.27.43-.4.55-.4.29.15.36.36a.49.49,0,0,0,.65.21c.29-.09.47-.34.4-.55s.17-.55.27-.63.32,0,.49.14a.49.49,0,0,0,.67-.14c.2-.22.24-.54.07-.68s-.13-.56-.08-.68.27-.17.49-.12.45-.16.51-.46a.49.49,0,0,0-.27-.62c-.22,0-.4-.43-.41-.55s.15-.28.36-.35a.49.49,0,0,0,.21-.65c-.09-.3-.34-.48-.55-.41s-.55-.17-.62-.27,0-.32.14-.49a.6.6,0,0,0-.32-.76.61.61,0,0,0-.48,0c-.15.17-.56.13-.68.08s-.17-.27-.13-.49-.16-.44-.45-.51a.5.5,0,0,0-.63.27c0,.23-.41.4-.54.41s-.29-.15-.36-.36a.49.49,0,0,0-.64-.21c-.3.09-.48.34-.41.55s-.17.55-.27.63-.32,0-.49-.14a.49.49,0,0,0-.67.14A.5.5,0,0,0,793.31,240.69Zm2.45-.15a1.75,1.75,0,1,1-.09,0l.09,0Z"/><path class="cls-4" d="M793.12,248.5a.58.58,0,0,1,.07.51c0,.1-.21.14-.38.11s-.34.12-.39.34a.39.39,0,0,0,.21.49c.16,0,.3.32.31.41s-.11.22-.27.27a.45.45,0,0,0,.25.82.46.46,0,0,1,.39.05.62.62,0,0,1,0,.53.37.37,0,0,0,.11.51.38.38,0,0,0,.52.06.59.59,0,0,1,.52-.06.36.36,0,0,1,.09.38c0,.16.13.34.35.39a.4.4,0,0,0,.49-.22c0-.16.32-.29.41-.31s.23.12.28.28a.43.43,0,0,0,.62.07.4.4,0,0,0,.17-.33.59.59,0,0,1,.21-.48c.08-.06.25,0,.38.11a.44.44,0,0,0,.56-.64c-.12-.11-.09-.43,0-.52s.21-.13.37-.09.35-.12.39-.36a.36.36,0,0,0-.21-.47c-.17,0-.31-.32-.31-.42s.12-.22.28-.28a.36.36,0,0,0,.16-.49c-.08-.23-.26-.37-.43-.32a.59.59,0,0,1-.48-.2c0-.08,0-.25.11-.38a.38.38,0,0,0-.1-.51h0a.37.37,0,0,0-.52-.05.63.63,0,0,1-.52.05c-.09,0-.13-.21-.1-.37a.39.39,0,0,0-.35-.4c-.23,0-.45.05-.48.21s-.32.31-.42.31-.22-.11-.27-.27a.39.39,0,0,0-.5-.17c-.22.08-.36.27-.31.43a.6.6,0,0,1-.21.48c-.08.06-.24,0-.37-.11a.45.45,0,0,0-.57.64Zm1.89-.13a1.86,1.86,0,1,1-1.2,2.35h0a1.85,1.85,0,0,1,1.21-2.33h0Z"/><polygon class="cls-8" points="657.97 207.01 656.39 207.02 656.41 211.51 654.83 210.36 653.89 211.64 658.02 214.63 657.97 207.01"/><path class="cls-8" d="M657.22,203.87v1.6a7.52,7.52,0,1,1-6.11,3.19l.47.59,1.19-3.19-3.34.45.66.8a9.08,9.08,0,1,0,7.13-3.46Z"/><path class="cls-4" d="M723.19,165.4v1.38l-5.26-.11v-1.38Z"/><path class="cls-4" d="M734.48,166.45l-.16,1.37-5.22-.57.17-1.37Z"/><path class="cls-4" d="M745.6,168.73l-.31,1.35-5.12-1.19.31-1.34Z"/><path class="cls-4" d="M756.42,172.1l-.46,1.31-5-1.71.45-1.31Z"/><path class="cls-4" d="M766.84,176.58l-.59,1.25-4.79-2.2.59-1.26Z"/><path class="cls-4" d="M776.73,182.1l-.7,1.19-4.52-2.68.71-1.19Z"/><path class="cls-4" d="M786,188.62l-.8,1.11L781,186.59l.79-1.11Z"/><path class="cls-4" d="M802.33,204.3l-1,.92-3.48-3.93,1-.91Z"/><path class="cls-4" d="M815.13,223l-1.2.7-2.62-4.54,1.2-.69Z"/><path class="cls-4" d="M820,233.2l-1.26.57L816.62,229l1.26-.56Z"/><path class="cls-4" d="M823.84,243.88l-1.32.43-1.6-5,1.32-.43Z"/><path class="cls-4" d="M826.53,254.9l-1.36.29-1.1-5.14,1.35-.29Z"/><path class="cls-4" d="M828.06,266.13l-1.37.15-.57-5.23,1.37-.14Z"/><path class="cls-4" d="M828.48,277.41h-1.39l-.08-5.27h1.38Z"/><path class="cls-4" d="M827.69,288.76l-1.38-.13.5-5.23,1.37.13Z"/><path class="cls-4" d="M822.71,310.85l-1.32-.41,1.59-5,1.32.41Z"/><path class="cls-4" d="M818.54,321.39l-1.27-.55,2.07-4.83,1.27.55Z"/><path class="cls-4" d="M813.3,331.44l-1.2-.67,2.55-4.59,1.21.67Z"/><path class="cls-4" d="M807.06,340.91l-1.13-.8,3-4.3,1.14.8Z"/><path class="cls-4" d="M799.89,349.68l-1-.91,3.43-4,1,.91Z"/><path class="cls-4" d="M791.84,357.68l-.94-1,3.82-3.61.95,1Z"/><path class="cls-4" d="M783.06,364.81l-.8-1.1,4.17-3.19.84,1.09Z"/><path class="cls-4" d="M773.56,371l-.73-1.18,4.48-2.75.73,1.18Z"/><path class="cls-4" d="M763.48,376.19l-.6-1.24,4.73-2.28.6,1.25Z"/><path class="cls-4" d="M752.92,380.32l-.47-1.3,4.95-1.78.47,1.3Z"/><path class="cls-4" d="M742,383.33l-.33-1.35,5.1-1.25.33,1.35Z"/><path class="cls-4" d="M730.8,385.17l-.19-1.37,5.21-.73.19,1.38Z"/><path class="cls-4" d="M675.3,377.27l.51-1.28,4.88,1.92-.5,1.29Z"/><path class="cls-4" d="M665.09,372.33l.63-1.23,4.67,2.4-.63,1.23Z"/><path class="cls-4" d="M655.45,366.37l.8-1.16,4.39,2.89-.8,1.16Z"/><path class="cls-4" d="M646.46,359.45l.88-1.07,4.07,3.32-.86,1.07Z"/><path class="cls-4" d="M638.25,351.64l1-1,3.72,3.72-1,1Z"/><path class="cls-4" d="M630.86,343.05l1.08-.87,3.31,4.08-1.08.87Z"/><path class="cls-4" d="M624.39,333.74l1.16-.75,2.87,4.39-1.15.76Z"/><path class="cls-4" d="M618.91,323.82l1.23-.63,2.39,4.67-1.23.63Z"/><path class="cls-4" d="M614.48,313.38l1.29-.5,1.92,4.89-1.29.5Z"/><path class="cls-4" d="M611.16,302.54l1.32-.37,1.41,5.07-1.33.37Z"/><path class="cls-4" d="M609,291.42l1.37-.22.87,5.18-1.36.22Z"/><path class="cls-4" d="M607.93,280.14l1.38-.09.34,5.24-1.41.1Z"/><path class="cls-4" d="M608,268.81l1.39.05-.2,5.26-1.38-.06Z"/><path class="cls-4" d="M609.31,257.55l1.37.19-.74,5.2-1.36-.19Z"/><path class="cls-4" d="M611.72,246.47l1.35.33-1.27,5.1-1.34-.33Z"/><path class="cls-4" d="M615.28,235.7l1.3.47-1.79,4.94-1.3-.46Z"/><path class="cls-4" d="M619.91,225.36l1.25.6-2.28,4.73-1.25-.6Z"/><path class="cls-4" d="M625.6,215.55l1.17.73L624,220.75l-1.18-.73Z"/><path class="cls-4" d="M632.25,206.36l1.1.8-3.19,4.17-1.11-.8Z"/><path class="cls-4" d="M639.81,197.93l1,.95-3.61,3.82-1-.95Z"/><path class="cls-4" d="M648.2,190.29l.9,1.06-4,3.42-.91-1Z"/><path class="cls-4" d="M657.31,183.57l.8,1.13-4.31,3-.8-1.13Z"/><path class="cls-4" d="M667.07,177.8l.67,1.21-4.6,2.54-.67-1.2Z"/><path class="cls-4" d="M677.37,173.07l.54,1.27-4.83,2.06-.55-1.27Z"/><path class="cls-4" d="M688.11,169.43l.4,1.32-5,1.54-.41-1.31Z"/><path class="cls-4" d="M699.16,166.91l.27,1.36-5.15,1-.27-1.35Z"/><path class="cls-4" d="M710.42,165.55l.13,1.38-5.23.49-.13-1.38Z"/><path class="cls-9" d="M817.88,201.34c0-.33,0-.67-.06-1a7.34,7.34,0,0,0-7.35-6.21H802.6A7.31,7.31,0,0,0,797,197a8.8,8.8,0,0,0-.45,9.22,7.3,7.3,0,0,0,6.1,3.51c.34.06.74-.09,1,.13,1.76,1.24,3.53,2.47,5.29,3.69a.92.92,0,0,0,1.28-.27.94.94,0,0,0,.14-.63c-.28-1-.75-1.91-1-2.91a11.33,11.33,0,0,0,2.85-.18,7.41,7.41,0,0,0,4.79-3.62A8.25,8.25,0,0,0,817.88,201.34Z"/><path class="cls-10" d="M770.47,196.52a10.52,10.52,0,0,0,5.78,8.65,10.78,10.78,0,0,0,5.08,1.12h3.79c-.79,2.16-1.59,4.3-2.39,6.45l9.08-6.38c.08,0,.16-.12.27-.12a18,18,0,0,0,2.75-.12c-.09-.4-.32-.75-.41-1.15a11.48,11.48,0,0,1-.4-4.2c-.08-.3.11-.56.12-.85a8.69,8.69,0,0,1,3.54-5.59H770.44C770.42,195.1,770.44,195.82,770.47,196.52Z"/><path class="cls-4" d="M801.05,186.85h0a.17.17,0,0,1-.06-.06,2.17,2.17,0,0,1-.44-.36,10.66,10.66,0,0,0-7.09-2.59H780.59a10.93,10.93,0,0,0-7.58,3.6h0a11.7,11.7,0,0,0-2,3.56,10.77,10.77,0,0,0-.56,3.43H797.7a8.59,8.59,0,0,1,3.9-1.6,21.21,21.21,0,0,1,2.39-.08A10.24,10.24,0,0,0,801.05,186.85Z"/><path class="cls-3" d="M783.34,194.27a1.89,1.89,0,1,1-1.89-1.89h0a1.88,1.88,0,0,1,1.88,1.88Z"/><path class="cls-3" d="M789.14,194.27a1.89,1.89,0,1,1-1.89-1.89h0a1.88,1.88,0,0,1,1.88,1.88Z"/><path class="cls-3" d="M794.94,194.27a1.89,1.89,0,1,1-1.89-1.89h0A1.89,1.89,0,0,1,794.94,194.27Z"/><circle class="cls-11" cx="622.35" cy="324.88" r="14.46"/><path class="cls-12" d="M622.34,309a15.88,15.88,0,1,0,15.88,15.87A15.87,15.87,0,0,0,622.34,309Zm-3.19,3.77h.28l.31.06a2.72,2.72,0,0,1,1.07.51,1,1,0,0,1,.15.14.62.62,0,0,1,.16.38c.11,1.56.23,3.12.35,4.68a.15.15,0,0,1,0,.14c-.13.17-.25.35-.4.52a1.68,1.68,0,0,1-.48.36,1.63,1.63,0,0,1-.47.2h-.21a.14.14,0,0,1-.17-.12v0a3.88,3.88,0,0,0-.09-.58c-.05-.59-.12-1.18-.17-1.77-.12-1.47-.23-2.93-.35-4.4v-.07Zm12.42,22.35a10.39,10.39,0,0,1-1.5.89,17.86,17.86,0,0,1-2.27.9l-.24,0a4.34,4.34,0,0,0-.88.06,3.55,3.55,0,0,1-.8-.05,7.2,7.2,0,0,1-2.25-.8,12.49,12.49,0,0,1-2.13-1.45l-.69-.6A25.22,25.22,0,0,1,619,332.2c-.8-.93-1.59-1.9-2.31-2.89a10.74,10.74,0,0,1-1-1.74,17.72,17.72,0,0,1-1-2.54l-.05-.15v-.16c-.19-.63-.35-1.26-.49-1.9s-.21-1.07-.29-1.6a.54.54,0,0,1,0-.18c-.08-.45-.13-.91-.19-1.35s-.09-.73-.13-1.1a.17.17,0,0,0,0-.1l0-.8v-.39a4.19,4.19,0,0,1,1.68-3.19,6.18,6.18,0,0,1,2-1,8.41,8.41,0,0,1,1.21-.26h.11v.1c.08.8.15,1.59.22,2.39,0,.5.09,1,.13,1.48l.21,2.27.07.79v.1l-.29.18a2.22,2.22,0,0,0-.72.8,2.29,2.29,0,0,0-.19,1.1,3.12,3.12,0,0,0,.22.9.89.89,0,0,0,.08.17c1,1.75,2.06,3.5,3.14,5.22.43.71.88,1.41,1.37,2.08a4.42,4.42,0,0,0,.44.53,1.65,1.65,0,0,0,1.08.47,2.21,2.21,0,0,0,.88-.15,3.59,3.59,0,0,0,.62-.31l5.92,4.1Zm1-1.66-.29,1.13v.08l-6.08-4.26.08-.05,1.31-.8a.53.53,0,0,1,.35-.07,1.74,1.74,0,0,1,.72.26c.35.21.7.44,1,.68l2.53,1.73a1.11,1.11,0,0,1,.39.47l.06.17V333a2.37,2.37,0,0,1-.09.43Z"/><path class="cls-13" d="M619.8,235.83l18.31-9.39-.23-.11-30.43-6.77h-.25Z"/><path class="cls-13" d="M639,228a1.48,1.48,0,0,0,0-.42l-13,6.65,8.54,13.37a1.57,1.57,0,0,0,.15-.32Z"/><path class="cls-13" d="M606,220.24a1.38,1.38,0,0,0-.18.39l-4.29,19.26a1,1,0,0,0,0,.35l13.41-8.49Z"/><path class="cls-13" d="M624.72,234.9l-4.79,2.45a.67.67,0,0,1-.48.06.73.73,0,0,1-.41-.26l-3.29-4.25-13.52,8.59a1.3,1.3,0,0,0,.32.14L633,248.37a1.09,1.09,0,0,0,.36,0Z"/><path class="cls-13" d="M838.53,320.12a23.64,23.64,0,1,1-23.64-23.65h0A23.64,23.64,0,0,1,838.53,320.12Z"/><path class="cls-14" d="M824.27,331l1.65-2.84a1.23,1.23,0,0,1,1.68-.45h0l4.67,2.71a5.75,5.75,0,0,0-5.71-5.77,6,6,0,0,0-1.69.24,2.48,2.48,0,0,1-.8-.55l-7-7.28h0l-4.93-5.13a2.64,2.64,0,0,1-.55-.91,5.75,5.75,0,0,0-8.36-6.69L807.9,307a1.23,1.23,0,0,1,.45,1.68l-1.65,2.85A1.24,1.24,0,0,1,805,312h0l-4.67-2.68a5.74,5.74,0,0,0,5.73,5.77,5.85,5.85,0,0,0,1.66-.24,2.6,2.6,0,0,1,.8.55l7,7.28h0l4.94,5.13a2.69,2.69,0,0,1,.55.92,5.75,5.75,0,0,0,8.35,6.65l-4.67-2.72A1.23,1.23,0,0,1,824.27,331Z"/><path class="cls-15" d="M831.51,305.14l-2-2-3.39,1.38-1.38,3.39-13.41,13.42a1.44,1.44,0,1,0,1.8,2.24,1.15,1.15,0,0,0,.22-.22l13.41-13.4,3.41-1.39Z"/><path class="cls-16" d="M803.28,336.39a2.23,2.23,0,0,1-3.16.17l0,0-2-2a2.24,2.24,0,0,1,.12-3.17l0,0,10.46-10.47a2.25,2.25,0,0,1,3.18-.15h0l2,2a2.24,2.24,0,0,1-.11,3.17l0,0Z"/><path class="cls-17" d="M800.79,331.81c-.72.73-1.45,1.19-1.59,1l-.41-.4c-.17-.17.29-.9,1-1.6l8.37-8.37c.73-.73,1.46-1.19,1.6-1l.41.4c.17.17-.3.9-1,1.6Z"/><path class="cls-17" d="M803.81,334.88c-.73.72-1.45,1.19-1.6,1l-.4-.41c-.17-.17.29-.89,1-1.59l8.37-8.38c.73-.72,1.45-1.19,1.6-1l.41.41c.16.17-.3.89-1,1.59Z"/><path class="cls-17" d="M802.31,333.33c-.73.73-1.46,1.18-1.6,1l-.4-.4c-.16-.16.29-.89,1-1.59L809.7,324c.74-.73,1.46-1.19,1.6-1l.4.4c.16.17-.29.89-1,1.6Z"/><path class="cls-3" d="M704.29,172A18.29,18.29,0,1,1,686,153.68,18.28,18.28,0,0,1,704.29,172Z"/><path class="cls-18" d="M670.16,172A15.85,15.85,0,1,0,686,156.12h0A15.85,15.85,0,0,0,670.16,172Z"/><path class="cls-19" d="M676.27,171.34a.75.75,0,0,1-.22-.63.81.81,0,0,1,.8-.67l9.32,1.12a.8.8,0,0,1,.39,1.06.81.81,0,0,1-.57.45l-9.31-1.12A.77.77,0,0,1,676.27,171.34Z"/><path class="cls-19" d="M685.85,172.45a.55.55,0,0,1-.12-.65l6.07-11.22a.48.48,0,0,1,.67-.17.05.05,0,0,1,0,0,.59.59,0,0,1,.24.75l-6.06,11.22a.5.5,0,0,1-.68.17l0,0A.27.27,0,0,1,685.85,172.45Z"/><path class="cls-19" d="M693.3,184.62v-.06L684.75,170a.39.39,0,0,1,.13-.52h0a.38.38,0,0,1,.52.13L694,184.18a.38.38,0,0,1-.18.51.4.4,0,0,1-.44-.07Z"/><path class="cls-19" d="M686.85,159.65a.85.85,0,1,1-.85-.85h0a.84.84,0,0,1,.84.84Z"/><path class="cls-19" d="M686.85,184.29a.85.85,0,1,1-1.7,0,.85.85,0,0,1,.85-.85h0a.84.84,0,0,1,.84.84Z"/><path class="cls-19" d="M698.32,173a.86.86,0,0,1-.85-.86.86.86,0,0,1,1.71,0,.86.86,0,0,1-.86.86Z"/><path class="cls-19" d="M673.7,173a.86.86,0,0,1-.85-.86.85.85,0,0,1,1.7,0,.86.86,0,0,1-.85.86Z"/><path class="cls-19" d="M692.68,161.44a.47.47,0,1,1-.47-.47h0A.46.46,0,0,1,692.68,161.44Z"/><path class="cls-19" d="M697.18,166a.46.46,0,0,1-.46.48.47.47,0,0,1-.48-.46.48.48,0,0,1,.46-.48h0a.46.46,0,0,1,.47.46Z"/><path class="cls-19" d="M697.14,178.19a.48.48,0,0,1-.95,0,.48.48,0,0,1,.47-.48h0a.48.48,0,0,1,.48.46Z"/><path class="cls-19" d="M692.61,182.71a.47.47,0,0,1-.94,0,.46.46,0,0,1,.46-.48h0a.47.47,0,0,1,.46.46Z"/><path class="cls-19" d="M680.49,182.74a.45.45,0,0,1-.46.47.46.46,0,0,1-.48-.46.48.48,0,0,1,.46-.48h0a.46.46,0,0,1,.47.46Z"/><path class="cls-19" d="M675.94,178.21a.47.47,0,1,1-.48-.46h0a.46.46,0,0,1,.46.46Z"/><path class="cls-19" d="M676,166a.48.48,0,0,1-.47.48.47.47,0,0,1-.48-.46.48.48,0,0,1,.47-.48h0a.47.47,0,0,1,.47.46Z"/><path class="cls-19" d="M680.49,161.49a.47.47,0,0,1-.94,0A.48.48,0,0,1,680,161h0a.46.46,0,0,1,.47.46Z"/><path class="cls-15" d="M724.72,387.51,708,379.28a5.34,5.34,0,0,0-.36-2.3.08.08,0,0,0,0-.07v-.05a5.11,5.11,0,0,0-2.55-2.61,5.21,5.21,0,0,0-5.21.44l4.44,2.08a1.11,1.11,0,0,1,.54,1.48h0L703.61,381a1.13,1.13,0,0,1-1.49.53l-4.44-2.08a5.23,5.23,0,0,0,5.66,4.76,5.13,5.13,0,0,0,3-1.26L723,391.14a5,5,0,1,0,1.79-3.63Zm6.65,3.61-1.53,3.11-3.46.23-1.93-2.91,1.53-3.11,3.47-.22Z"/><path class="cls-4" d="M696.85,386.91a9.58,9.58,0,1,1,14.24-11.48l7.3,3.43-.12-3.64-3.7.12a12.08,12.08,0,0,0-.53-1.46L717,371.6l-4-5.11-2.92,2.27-.63-.45-.65-.42,1-3.56-6.21-1.79-1,3.56a13.55,13.55,0,0,0-1.56,0l-1.26-3.48-6.08,2.21,1.27,3.48a12.59,12.59,0,0,0-1.23.95l-3.07-2.07L687,372.6l3.06,2.07a12.86,12.86,0,0,0-.43,1.5l-3.7.12.21,6.47,3.71-.12c.15.49.32,1,.52,1.46l-2.92,2.27,4,5.11,2.93-2.27.63.45.65.42-1,3.56,6.21,1.78,1-3.55a12.28,12.28,0,0,0,1.6-.05l1.25,3.48,6.09-2.21-.67-1.85L704,388.36A9.54,9.54,0,0,1,696.85,386.91Z"/><path class="cls-4" d="M640.05,286.23l-2.17.74s-4.24-2.18-6.13-1.84-5.9,1.38-6.58,2.64-1.66,4.58,0,4.47,2.39-2.76,2.39-3.1,3.83.29,3.83.29a26.13,26.13,0,0,1,8.3,5.32s2.47-.8,2.76-1.83Z"/><path class="cls-4" d="M623.64,298.54a1.2,1.2,0,0,1-1.58.62h0a1.21,1.21,0,0,1-.5-1.6l.37-.75a1.2,1.2,0,0,1,1.59-.61h0a1.19,1.19,0,0,1,.49,1.59Z"/><path class="cls-4" d="M625.81,300.07a1.34,1.34,0,0,1-1.74.73h0a1.33,1.33,0,0,1-.49-1.81l.41-.85a1.33,1.33,0,0,1,1.74-.72h0a1.33,1.33,0,0,1,.49,1.81Z"/><path class="cls-4" d="M628.14,301.35a1.38,1.38,0,0,1-1.77.8h0a1.37,1.37,0,0,1-.46-1.87l.43-.88a1.36,1.36,0,0,1,1.76-.8h0a1.39,1.39,0,0,1,.48,1.87Z"/><path class="cls-4" d="M630.31,303a1.39,1.39,0,0,1-1.77.8h0a1.39,1.39,0,0,1-.46-1.87l.43-.89a1.39,1.39,0,0,1,1.77-.8h0a1.39,1.39,0,0,1,.46,1.87Z"/><path class="cls-4" d="M640.23,295.76l-4.6-3.65-4.24-2.19-3.19-.37s-1.52,3.85-3.47,3.19-.09-5.19-.09-5.19l-3.19-1.36-2.83,6.73,1.77,1.53c.48.62,1,1.19,1.47,1.73a1.6,1.6,0,0,1,1.16-.51,1.47,1.47,0,0,1,.65.15,2.57,2.57,0,0,0,2.86,1.89,1.5,1.5,0,0,1,.19.62,1.68,1.68,0,0,1,.85-.24,1.51,1.51,0,0,1,.65.15,1.6,1.6,0,0,1,.84,1.6,1.83,1.83,0,0,1,.68-.16,1.33,1.33,0,0,1,.65.16,1.74,1.74,0,0,1,.67,2.31c.33.21,1.36.8,1.89.5a1.67,1.67,0,0,0,.69-1.26,1.83,1.83,0,0,0,2.12,0c.91-.8.4-1.37.4-1.37s1.32.57,1.88,0a1.58,1.58,0,0,0,.41-1.37s.8.57,1.72-.58A1.86,1.86,0,0,0,640.23,295.76Z"/><path class="cls-18" d="M780.73,276.67v-.06h-.48v.1a1.69,1.69,0,0,0-1.44,1.65v1.71a1.69,1.69,0,0,0,1.44,1.65v13.33h.48V281.72a1.67,1.67,0,0,0,1.43-1.65v-1.71A1.68,1.68,0,0,0,780.73,276.67Zm.95,3.36a1.2,1.2,0,0,1-.95,1.17h-.48a1.19,1.19,0,0,1-1-1.17v-1.71a1.19,1.19,0,0,1,1-1.16h.48a1.2,1.2,0,0,1,.95,1.16Z"/><path class="cls-18" d="M794.05,289.83V276.61h-.48v13.26a1.67,1.67,0,0,0-1.43,1.66v1.7a1.68,1.68,0,0,0,1.43,1.65v.17h.48v-.17a1.67,1.67,0,0,0,1.43-1.65v-1.7A1.66,1.66,0,0,0,794.05,289.83Zm1,3.36a1.19,1.19,0,0,1-1,1.16h-.48a1.19,1.19,0,0,1-1-1.16v-1.7a1.21,1.21,0,0,1,1-1.18h.48a1.21,1.21,0,0,1,1,1.18Z"/><path class="cls-18" d="M787.39,283.28v-6.67h-.49v6.71a1.66,1.66,0,0,0-1.42,1.65v1.71a1.66,1.66,0,0,0,1.42,1.65v6.72h.49v-6.72a1.67,1.67,0,0,0,1.43-1.65V285A1.67,1.67,0,0,0,787.39,283.28Zm1,3.36a1.2,1.2,0,0,1-1,1.17h-.49a1.22,1.22,0,0,1-.95-1.17v-1.71a1.21,1.21,0,0,1,.95-1.16h.49a1.19,1.19,0,0,1,1,1.16Z"/></svg>