<svg id="Layer_1" data-name="Layer 1" xmlns="http://www.w3.org/2000/svg" viewBox="0 0 1440 550"><defs><style>.cls-1{fill:#f69140;}.cls-2{opacity:0.06;}.cls-3,.cls-4,.cls-9{fill:#fff;}.cls-3{opacity:0.84;}.cls-4{opacity:0.52;}.cls-5{fill:#f1f1f1;}.cls-6{fill:#dbdada;}.cls-7{fill:#6c7d8c;}.cls-8{fill:#76c7aa;}.cls-10{fill:#5db696;}.cls-11{fill:#e9e9e9;}.cls-12{fill:#e16f4b;}.cls-13{fill:#41515b;}.cls-14{fill:#133849;}.cls-15{fill:#221f1f;opacity:0.2;}.cls-16{fill:#51616e;}.cls-17{fill:#586c7b;}.cls-18{fill:#f5f3f3;}</style></defs><title>6</title><rect class="cls-1" x="0.46" y="-0.01" width="1439.92" height="549.94"/><g class="cls-2"><path d="M748.61,217.34c.64-.42,1.22-.82,1.77-1.19-.09-.84-1.24-1.9.19-2.1a11.34,11.34,0,0,0,2,2.07A28.56,28.56,0,0,0,756.4,218a1.77,1.77,0,0,0,1.24,0c.17-.08.19-.7.12-1a3.68,3.68,0,0,0-.58-1c1-.43,2.5-.48,1.84-2.14l-5-.57c-4.47-3.07-9.43-5.44-15.27-5.76l-.6,1.46c-2.49-.06-4.86-1.95-7.31.42a18.63,18.63,0,0,1-1.74-1.7,3.36,3.36,0,0,0-3.88-1.29c-2.43,1-4-.52-5.84-1.41a3.85,3.85,0,0,0-2.25-.64c-2.06.58-3.51-.74-5.31-1.29-1.25.28-2,1-1.08,2.67l-6.6-.56c-.5,1.11-1.57,1.09-4.55-.54l1.16-1c-1.38-2.53-4-2.59-5.51-.1a16,16,0,0,0-13.91-.74c1-.81,2.26-1.22,3.19-2a4.52,4.52,0,0,0,1.69-2.64c.06-1.06-3.63-2.85-4.65-2.19-1.61,1-2.23.16-3.17-.87-1.2-1.29-2.55-.88-3.11.81-.18.56-.29,1.15-.38,1.52a30.58,30.58,0,0,0-4.89,0,52.76,52.76,0,0,0-5.69,1.56,3.06,3.06,0,0,0-.49.22c-.74.4-1.05.88-.16,1.43a3.77,3.77,0,0,0,1,.3l-.49.68a17.52,17.52,0,0,0-3.16.05,2.12,2.12,0,0,0-1.47,1.19c-.1.42.61,1.05,1,1.55.57.74,1.18,1.45,1.77,2.17a16.31,16.31,0,0,1-3.57-2,1.22,1.22,0,0,0-1.09-.1,1.49,1.49,0,0,0-.51,1,2.7,2.7,0,0,0,.28,1l-.6.31q-1.17-1.79-2.34-3.6c-.41.83,0,5.7.59,6.13.27.21.76.11,1.14.21a5.44,5.44,0,0,1,2.08.69,9.32,9.32,0,0,1,1.45,2.2,2.13,2.13,0,0,1-.57-.25c-2.51-2.35-2.51-2.35-3.87.68a3.27,3.27,0,0,1-.14.33c-.71,1.29-1.67,1.54-3.23.59.65-.31,1.19-.39,1.42-.7.48-.64,1.23-1.49,1.11-2.1a78.77,78.77,0,0,0-2.1-7.8c-.17-.54-1-1.31-1.42-1.22-.58.13-1.11.85-1.46,1.44a9.27,9.27,0,0,0-.83,2.26,3.74,3.74,0,0,0-.29,2,14.28,14.28,0,0,0,1.49,2.24,4.81,4.81,0,0,1,.33,1.24l-.4.26a6.21,6.21,0,0,0-6.71-2.78c.06.91.11,1.59.16,2.28l-.4.09-.79-1.05c-1.51.45-3,1.42-4,1.09-2-.62-3.1.47-4.45,1.3-.61.37-1.17.83-1.9,1.36-.54-1.64-.5-3.54-3-2.75l1.31,4c-.53-.2-.76-.38-.95-.33-1,.24-2,.55-3.05.83a6,6,0,0,1,.48,1.48c0,.33-.31.68-.25.57-1-.48-1.85-1.24-2.33-1.05-1.79.69.54,1.34.24,2.14a3.71,3.71,0,0,1-2.4-4.21,5.68,5.68,0,0,0,2.27.35,10.43,10.43,0,0,0,2.44-1.5c-.5-.58-.89-1.37-1.52-1.7-2.07-1.08-4.23-2-6.35-3-.26-.12-.63-.32-.66-.52-.34-2.26-1.6-1.06-2.6-.88a6.26,6.26,0,0,0-2.42-.54c-.13,0-.27.89-.44,1.47-1-.42-2.16-1.36-3.22,0l1,1.53c-1.35.69-2.52,1.64-3.8,1.85-2.35.36-3.29,2-4.17,3.78-1.14,2.26-2.52,4.15-5,5a2.7,2.7,0,0,0-2,3.13c.47,1.45,1.06,2.87,1.69,4.55.9-.4,1.76-.78,2.61-1.18a1.47,1.47,0,0,1,2.24.73c.43.9.9,1.78,1.25,2.72.59,1.61.88,1.75,2,.39.8-1,1.08-2.51,2-3.34,1.53-1.37,1.59-2.41.27-3.94-1.2-1.38-.6-2.69,1.08-3.7a8.69,8.69,0,0,0,2-2.29c.44-.56.74-1.6,1.21-1.66a5.51,5.51,0,0,1,2.24.62l-1.65,1.71a6.1,6.1,0,0,1-.88.88c-1.53,1-1.83,2.55-.82,4.44.74,1.38,2.08,1.65,3.87.79,1.17-.57,1.39-.43,1.81,1.26a2.7,2.7,0,0,0-4,1.26l1.18,1.3-.31.54-2.25-1.13a12.45,12.45,0,0,1-.22,1.71c-.35,1.34-.46,3.69-1.9,3.38-2.26-.48-3.82,1-5.84,1-1.52,0-2.63-.91-2.2-2.42.09-.34.35-.64.46-1,.33-1-.57-2.33-1-2.3-.4.74-.57,1.56-1,1.69-1.37.44-1.09,1.13-.56,2,.4.68.7,1.41,1.07,2.16-1.9,1-4.63.52-4.59,3.63-2.6-1-2.68,3.79-4.91,2.38l-3.76,2.16c3.86,1.12,3.69,3.54,2.76,6.34-1.7-.28-3.27-.58-4.85-.8-1.21-.16-2,.59-1.86,1.64.21,1.61.42,3.1-.8,4.43a.85.85,0,0,0,0,.8c.94.66.71,3,2.85,2,.1-.05.43.31.62.51.56.56,4.37.39,4.78-.28a23.2,23.2,0,0,0,1.3-2.53,9.18,9.18,0,0,1,.67-1.85c1-1.26,2.08-2.4,3.44-3.92,1.44.89,3.2-.05,4.62-1a27.27,27.27,0,0,0,3.23,3.45c1.53,1.16,3.34,2,3.1,4.43h.58c.23-.78.46-1.56.71-2.44l1.91.46c-.63-.73-.94-1.06-1.23-1.41-1.45-1.79-4-2.34-5-4.78-.38-1-.48-1.48.42-2.1a5.92,5.92,0,0,1,.7.56c1,1.06,1.86,2.17,2.85,3.21.61.63,1.55,1,2,1.77.89,1.56,1.51,3.28,2.31,4.9a1.66,1.66,0,0,0,1,.8c.22,0,.56-.46.85-.7s.65-.51,1.09-.85l-1.53-1.11c1-2.07,3-1.6,4.58-2.1-1.9,3.17-1.57,4.21,2,6.11l1.23-.75a10.36,10.36,0,0,0,1.94.66,13.58,13.58,0,0,0,2.19-.07c.12.64.42,1.23.28,1.68a15.94,15.94,0,0,1-1.65,4.09c-.26.4-1.64,0-2.47.1a11.42,11.42,0,0,0-2.14.8c-.33-.19-.93-.84-1.43-.77-1.79.28-3-1-4.26-1.68s-2-.41-2.64.6a9.35,9.35,0,0,0-.64,2.24c-.74-.35-1.43-.71-2.15-1-1.18-.54-2.37-1.06-3.56-1.57-1-.45-2.06-.87-3.1-1.31l.68-.41c.06-1.07.44-2.25.1-3.15s-1.5-1.05-2.49-.48a1.07,1.07,0,0,1-.71.05,12.11,12.11,0,0,0-8.57,1.61c-1.74,1-2.84.66-4.24,0-.69.95-1.18,2.36-2,2.61-1.68.51-1.85,1.51-2,2.91a5.31,5.31,0,0,1-1.19,2.59c-.6.71-1.79,1-2.3,1.71a15.07,15.07,0,0,0-2.27,4.51,15.81,15.81,0,0,0-.56,6c.28,1.94.18,3.39-1.71,4.5,1,.68,2,1.26,1.12,2.59-.08.14.3.64.53.92s.62.51.85.81c2,2.64,4,5.34,6.13,7.89.33.39,1.46.29,2.16.14.94-.19,1.87-1,2.73-.92a8.15,8.15,0,0,0,5.43-1.25,4.18,4.18,0,0,1,2.09-.43c.38,0,1.06.4,1.09.66.16,1.8,1.49,1.93,2.81,2.21a13,13,0,0,1,1.94.69c-.08,1.47.29,3-.29,3.78-1.23,1.7-.23,2.49.75,3.52.74.77,1.75,1.52,2,2.46.68,2.46,1,5,1.53,7.84-.33.58-.85,1.59-1.45,2.54a5.31,5.31,0,0,0-.07,5.59c.84,1.71,2,3.56,2,5.33-.06,3,1.65,5.14,2.49,7.69.31,1,1.07,2,.87,2.84a2,2,0,0,0,1.17,2.45,4.63,4.63,0,0,0,2.38-.08,13.57,13.57,0,0,0,2.37-.54,32.16,32.16,0,0,0,4.41-1.59,5.81,5.81,0,0,0,1.7-1.75,15.27,15.27,0,0,0,1.22-1.86c.21-.36.22-1,.47-1.12,1.38-.47,1.18-1.63,1.37-2.67.1-.53.36-1.4.68-1.46,2.23-.45,1.85-2.18,1.69-3.57-.14-1.24-.81-2.41.37-3.5a18.18,18.18,0,0,1,2.51-2.46c3.4-2,2.82-2.78,2.44-5.27s-1.27-5-1.24-7.45c0-3.11,2.15-5.41,4.24-7.56,1.71-1.77,3.66-3.38,5-5.4s1.83-4.26,2.75-6.53l-1.18-1.44c-.7.39-1.25.73-1.82,1a15,15,0,0,1-1.79.8c-1.27.42-4.15-.72-4.7-1.74-1.27-2.33-2.59-4.63-3.87-7-1-1.84-2-3.7-3-5.56a.41.41,0,0,1-.06-.35c1-2-.77-3-1.68-4.3-.66-.94-1.17-2-1.84-3.14,1.11.69,1.88,1.11,2.58,1.64a4.22,4.22,0,0,1,1,1.18c.33.54.58,1.12.89,1.68.69,1.24,1.41,2.47,2.09,3.72.4.73.69,1.54,1.15,2.23,1.61,2.41,3.56,4.64,3.17,7.89-.06.46.56,1.2,1.05,1.47.27.14.92-.46,1.41-.69.94-.42,1.88-.83,2.83-1.21.38-.15.82-.15,1.18-.33A41.87,41.87,0,0,0,643,281c3.21-2,3.48-1.91,5-4.88a2.37,2.37,0,0,1,.5-.5c1.33-1.29.91-3-.78-3.72a15.45,15.45,0,0,1-2.52-1.86,1.71,1.71,0,0,1-.53.58,5.2,5.2,0,0,1-2.25,1.06c-.8,0-1.78-.43-1.46-1.76.06-.22-.61-.62-.94-.94-1.24-1.17-2.63-2.24-3-4.16l2.35.2-.31.33a34.55,34.55,0,0,0,2.78,2.89c1.3,1.09,2.71.87,4-.25.83,2.52,3.83,3.33,5.4,2.09l4.17.68c.15.13.7.58,1.22,1.06s1.31,1,1.62,1.63c1.15,2.34,1.54,2.54,3.79,1.41a8,8,0,0,1,.14,1.43,12,12,0,0,0,1.82,7,44.72,44.72,0,0,1,2.37,5.85,9.66,9.66,0,0,0,.77,1.26,5.47,5.47,0,0,0,1.4-.95c1.35-1.69,1.26-3.66,1-5.67-.07-.6-.17-1.47.16-1.82,1.32-1.38,2.81-2.61,4.24-3.89.74-.67,2-1.27,2.12-2,.2-1.89,1.28-1.86,2.38-1.71l1.43-1.82a21,21,0,0,0,1.69,2.92c1.16,1.41,2.28,2.7,2,4.78-.11,1,.77,1.33,1.62.64a4.15,4.15,0,0,0,.7-1.22l.55.33c.11.51.42,1.06.31,1.5-.55,2.22,1,3.94,1.39,5.92.17.8,1.41,1.49,1.38,2.19a11.94,11.94,0,0,0,2.29,7.49l2.54.65c.45-2.46.56-4.49-1.33-6.11a6.62,6.62,0,0,1-2.71-4,9.57,9.57,0,0,1,.05-2.39c0-.12.83-.31.89-.22.41.64.73,1.36,1.08,2a3,3,0,0,0,.28.36c3.25-1.23,1.11,2.08,2.37,2.92,1.48-1.59,3.76-2.41,3.93-5.05a5.82,5.82,0,0,0-2.32-5.36c-1.92-1.51-1.87-2.48-.22-4a11,11,0,0,0,1.1-1.5l.85,1.75c1.6-1.53,3.14-2.88,5.49-2.26.37.1,1.05-.34,1.34-.72,1.39-1.82,3.08-3.44,3.83-5.7.13-.41.71-.87.62-1.12-.73-1.9-.19-4.19-1.94-5.82a4.47,4.47,0,0,1-1.23-2.72c0-.41,1.19-.88,1.77-1.41.25-.23.52-.86.41-1a2.63,2.63,0,0,0-1.35-.91c-.36-.06-.79.55-1.22.6a2.28,2.28,0,0,1-1.58-.28,1.45,1.45,0,0,1-.33-1.37,25.37,25.37,0,0,1,2.56-2.39l.44,2.52,3.6-1.23.24.55-.89,1.41c1.94.65,2.54,2.3,2.81,4,.2,1.25.78,1.82,1.93,1.21,1.41-.73,1.34-2.05.76-3.13a27.58,27.58,0,0,0-2.57-3.52,9.85,9.85,0,0,0,1.55-2.81c.26-1.3.88-1.58,2-1.68a3.49,3.49,0,0,0,2.2-.85,14,14,0,0,0,3-12.21c-.42-2.22-2.16-2.77-3.57-1.53l-2.27-1.89c.71-1.06,1.5-2.05,2.09-3.15,1.55-2.89,2.74-3.5,6.08-2.93.92.16,1.86.54,2.57-.61.11-.17,1.13.19,1.72.35s1.16.62,1.62.49a2.62,2.62,0,0,0,1.24-1.26c.23-.38,0-1,.26-1.4.34-.64.8-1.59,1.32-1.67a5,5,0,0,1,2.38.74,4,4,0,0,1,.85.73l1.48-1.94c1.13,1.17.42,1.79-.26,2.66-1.24,1.56-2.72,3.16-3.27,5-.81,2.71,1.18,5,2.2,7.4.11.26.55.38,1,.67.39-.73.76-1.33,1.05-2a13.89,13.89,0,0,1,1.16-2.6c1.1-1.49,1.19-3.35,0-4.5a1.8,1.8,0,0,1,.11-3c2.23-1.75,3.48-1.8,5.55-.24,1-.84.35-2.89,2.36-3.1a27.55,27.55,0,0,0,4.16-1.16C752,218.64,749.54,218.61,748.61,217.34ZM630.23,250.12c0,.3-.84.84-1.28.82-1.17-.06-2.63,0-3.42-.67a3.17,3.17,0,0,0-3.36-.53,44.69,44.69,0,0,1-5.08.79c-.39-2.3.15-3.44,1.82-4.55.43-.28.55-1,.8-1.56s.41-1,.68-1.64l1.86,2.44-1.62.91c.11.24.23.49.34.74l3.92-.78c0-.18,0-.36,0-.53l-1.59-.61-.18-.47,4-1.79.25.34-2.17,2.4c1.58,1.07,3,2,4.35,3A2.29,2.29,0,0,1,630.23,250.12Zm12,1.11-1.35-.92c.45,1.66.84,3,1.15,4.27a1.77,1.77,0,0,1-2,2.09,2.61,2.61,0,0,1-1.76-4.25c.11-.17.43-.2.78-.36-2.09-1.84-4.37-3.58-3.56-6.11.71-2.22,3-3.12,5.62-2.44-.05.39-.11.91-.14,1.15a10.36,10.36,0,0,0-2.17,2c-.2.32.31,1.25.7,1.74a7.64,7.64,0,0,0,1.71,1.16l.89-.3.58,1.81Zm5.77-4.31c.49-1.17.9-2.3,1.46-3.34.07-.12,1.4.15,1.45.39a37.43,37.43,0,0,1,.42,4.17Z"/><path d="M691.81,297.16l0-.05h0Z"/><path d="M554.74,304.22a10.21,10.21,0,0,0-2-1.11c-1.61-.56-3.64.09-4.83-1.77-.19-.31-.86-.41-1.32-.45-1-.08-2.16.74-3-.54a2.81,2.81,0,0,0-1.23.47,3.72,3.72,0,0,0-.48.41.11.11,0,0,1-.17-.12c1.65-2.86,1.42-3.55-1.09-6.34-1.49-1.65-2.89-2-4.46-1.21a.11.11,0,0,1-.12,0l-4.71-5.17a.09.09,0,0,1,0-.13l.19-.23a.1.1,0,0,0-.07-.17,3.83,3.83,0,0,0-1.89.05c-2.29,1.22-4,.27-5.83-1.05-.8-.58-2.39-1-3.05-.63-1.78,1.09-3.75,2.2-4.23,4.25a.1.1,0,0,1-.14.07c-1.13-.47-2.23-1.31-3.17-1.17-2.31.35-3.61-.49-3.42-2.86.1-1.15.38-2.29.65-3.8a.11.11,0,0,0-.09-.12l-4.23-.83a.12.12,0,0,1-.09-.13c.27-1.25.65-2.71.86-4.2a5.76,5.76,0,0,0-.27-1.85.11.11,0,0,0-.13-.08,21.61,21.61,0,0,0-2.68.74c-.28.11-.36.73-.54,1.11-.89,1.84-4.63,2.3-5.48.49a12.83,12.83,0,0,1-1.1-5.38c0-3,2.23-4.85,4.19-6.79a.12.12,0,0,1,.14,0l1.13.81a.11.11,0,0,0,.15,0l.78-1.11a.11.11,0,0,1,.19.05c.2,1.68,1.2,1.63,2.13,1.44a.11.11,0,0,0,.08-.07c.19-.58.22-1.15.51-1.39,1.14-.94,5.17,0,5.8,1.28a3,3,0,0,1,.06,1.21,4.69,4.69,0,0,0,3,4.64.1.1,0,0,0,.15-.11c-.28-1.95-.44-3.58-.77-5.17-.79-3.79.06-5.61,3.43-7,2.18-.92,2.59-1.81,1.85-3.76a.14.14,0,0,1,0-.09,18.23,18.23,0,0,1,2.42-3.6,17.89,17.89,0,0,1,3.71-2.14.1.1,0,0,0,0-.15c-.81-1.11-.32-1.76.9-2.42a41.39,41.39,0,0,0,3.72-2.66c.56-.39,1.17-.71,1.75-1.06a.11.11,0,0,1,.15,0l.25.44a.11.11,0,0,1,0,.14c-.77.56-1.57,1.09-2.29,1.72a1.2,1.2,0,0,0-.35,1,1.08,1.08,0,0,0,1,.39c1.49-.93,2.92-1.94,4.71-3.15a.11.11,0,0,0,0-.19,10.3,10.3,0,0,1-2.41-.9,4.7,4.7,0,0,1-1.36-1.77c-.17-.32,0-.8,0-1.23a.1.1,0,0,0-.1-.11,5.28,5.28,0,0,0-1.7.12,9,9,0,0,0-1.78,1.07.1.1,0,0,1-.15,0l-.18-.34a.1.1,0,0,1,0-.14c1.44-.86,2.54-2.24,4.63-2.05,1.93.17,4,.59,5.58-1.2a1.47,1.47,0,0,1,.84-.27c1.73-.23,2-.76,1.72-2.74-.27-1.63-1.24-1-2.23-.7a.1.1,0,0,1-.12-.15l.82-1.46a.11.11,0,0,0-.06-.15c-1.22-.44-2.36-.84-2.67-2.16-.13-.56.18-1.28,0-1.76-.62-1.25-1.4-2.43-2.22-3.78a.1.1,0,0,0-.17,0c-1.06,1.35-1.7,3.65-3.9,2.36-.6-.35-.34-2.18-.53-3.88l0-.07a11.38,11.38,0,0,0-6.31-2.58.08.08,0,0,0-.09,0,3.38,3.38,0,0,0-1,3.5c.15.57.11,1.63-.23,1.83-1.33.81-.71,1.81-.58,2.83s.43,2.53.07,2.71c-1.86,1-1.65,2.56-1.54,4,.13,1.77-1.16,1.73-2.18,2.1a.1.1,0,0,1-.13-.06,10.36,10.36,0,0,1-.88-2.5,7.17,7.17,0,0,1,.25-2.13.26.26,0,0,0-.4-.25h0a.09.09,0,0,1-.11,0c-1.4-.79-2.79-1.59-4.2-2.35-.74-.39-1.55-.67-2.3-1.06a4.62,4.62,0,0,1-1.56-1,14.83,14.83,0,0,1-1.2-2.31.07.07,0,0,1,0-.05c.4-3.38,3.86-4.51,5.87-6.91,0,0,.11,0,.17,0,1.51-.05,1.84-1,1.85-2.21a.12.12,0,0,0,0-.1l-1.09-.6a.1.1,0,0,1,.07-.19c1.14.22,2.29.8,2.77-1.14a5.62,5.62,0,0,1,1.12,0,6.87,6.87,0,0,0,2.55-.17c.4-.19.38-1.26.55-1.93a3.31,3.31,0,0,1,.31-1.08c.81-1.07.17-1.73-.69-2.12s-1.69-.59-2.24.64a33.07,33.07,0,0,1-2,3.47.1.1,0,0,1-.19-.05c-.16-1.3-.27-2.27-.42-3.55a.11.11,0,0,0-.18-.06l-1.32,1.44a.11.11,0,0,1-.18,0c-.34-1.26-.59-2.28-.92-3.28-.2-.62-.39-1.43-.85-1.7s-1.24.12-1.7.46a6.53,6.53,0,0,0-1.15,1.3.68.68,0,0,0,.1.93c1.7,1.48,1.57,2.12,0,3l-.07,0c-1.26-.14-2.2-.54-2.74-.23-2.28,1.28-3.75,1.3-5.88-.11a1.67,1.67,0,0,0-1.58.21,4.64,4.64,0,0,0-.72,1.72.1.1,0,0,1-.12.07c-1.35-.33-2.16-2.95-4.27-.82a.11.11,0,0,1-.18-.1c.49-1.83-.49-2-1.55-2.2-1.57-.31-3.11-.75-4.66-1.13-.35-.09-.73-.32-1-.24-1.72.43-3.34.64-4.29-1.19a.11.11,0,0,0-.16,0l-2.47,2a.1.1,0,0,1-.14,0l-.19-.24a.09.09,0,0,1,0-.14l1.09-.85a.1.1,0,0,0,0-.18c-1.5-.39-3.34.78-4.46,2.64a.1.1,0,0,1-.11.05c-2-.57-4.16-.74-5.73-1.83-2.12-1.46-4.32-.17-6.45-.93-1-.36-2.27.1-2.9-1.31a.11.11,0,0,0-.17,0c-1.11,1.09-2.09,1.6-2.64-.22a.1.1,0,0,0-.13-.07l-2.18.67c-1.38.42-2.77.83-4.14,1.29-.17.05-.33.36-.37.57-.26,1.3-1.16,1.46-2.29,1.53a5.62,5.62,0,0,0-1.85.76.1.1,0,0,0,0,.16,6,6,0,0,0,1.47,1.61,16.19,16.19,0,0,0,3,1,.1.1,0,0,1,0,.2c-2.56.8-5.17-.63-7.15,1.46a.11.11,0,0,0,0,.13c.61.77,1.13,1.9,1.94,2.17s1.9-.17,2.89-.38a.1.1,0,0,1,.11.15,3.55,3.55,0,0,1-1.61,1.37,14.71,14.71,0,0,0-2.59.95,10.4,10.4,0,0,0-1.77,2.22.09.09,0,0,0,0,.13c.24.28.68.61.67.93-.06,1.85,0,2,1.61,1.48a.1.1,0,0,1,.14.12c-.15.7-.3,1.4-.45,2.15a.11.11,0,0,0,.11.13l3.28-.23.43.7c-1.8,3-5.66,3.31-8.29,5.44a.11.11,0,0,0,0,.18,3.83,3.83,0,0,0,2.49.17c2-.92,3.91-2.07,5.82-3.18,1.05-.62,2-1.33,3.05-2l0,0,3-4.47c.57-.84,1.2-1.42,2.08-.74a.09.09,0,0,1,0,.15l-2.61,2.69a.09.09,0,0,0,0,.12l.28.5a.12.12,0,0,0,.09.05c.53,0,1.21.22,1.52,0a13.12,13.12,0,0,0,2.53-2.68c.55-.82.83-1,1.59-.25.53.53,1.35,1.28,1.92,1.18,1.54-.26,2.37.68,3.41,1.41.8.57,1.3,1.69,2.66,1.41a1.53,1.53,0,0,1,1.52,1.44c.05.77,1.11,1.46,1.81,2.18a.1.1,0,0,1-.06.17h0a.1.1,0,0,0-.07.14c.91,2.23,1.82,4.45,2.74,6.68,0,0,0,0,0,.06a2.77,2.77,0,0,0,.06,2c1.32,1.73.89,3.39.33,5.26a59.07,59.07,0,0,0-1.47,7.14,3.54,3.54,0,0,0,.49,1.67c.38.89.8,1.75,1.21,2.62a.11.11,0,0,1-.05.14l-.28.16a.11.11,0,0,0,0,.17l3.66,3.45a.05.05,0,0,1,0,.05c.31,1.24.34,2.72,1.05,3.73s1.66,2,.45,3.28a.11.11,0,0,0,0,.16c1.56.88,2.93,1.62,3.08,3.64.05.72,1.15,1.36,1.88,2a.1.1,0,0,0,.17-.07c.16-4-3.34-6.46-3.88-10.08a.11.11,0,0,1,.16-.11c.77.5,1.55,1,1.74,1.74.75,2.75,2.56,4.79,4.14,7a17.11,17.11,0,0,1,1.46,3.63c.17.45.24,1.05.56,1.29a45,45,0,0,0,4.63,3.16c1.41.82,2.82,1.77,4.72,1,.54-.2,1.47.58,2.2,1a27.36,27.36,0,0,1,2.64,1.48,18.28,18.28,0,0,1,2.71,2.09c1.1,1.07.7,3.42,3,3.54.14,0,.19.64.4.74a16.18,16.18,0,0,0,3.06,1.16c.24.05.66-.68,1-1.15a.11.11,0,0,1,.14,0c1.66,1.15,1.77,3,1.91,4.73a2.37,2.37,0,0,1-.91,1.64c-2.29,1.86-3.15,4.46-2.11,6.71a.11.11,0,0,1,0,.13c-1.62,1.17-1.62,2.09,0,3.36a1.7,1.7,0,0,1,.34.59c.6,1.28,1.22,2.56,1.81,3.85,1.46,3.19,2.45,6.71,6.3,8.09a2.83,2.83,0,0,1,1.58,1.84,40.37,40.37,0,0,1,.67,7.89c-.12,2.35-1,4.67-1.42,7a3.33,3.33,0,0,0,0,1.93c.89,1.77.35,3.35-.27,5a6.37,6.37,0,0,0-.44,2.39c.07,1.72.29,3.43.48,5.14,0,.2.23.37.3.56a10,10,0,0,1,.75,2.22c.13,1.42-1.53,2.83-.07,4.3,0,0-.14.31-.23.47-.8,1.34-.17,2.42.67,3.44,1.31,1.6,2.65,3.19,3.88,4.65a.1.1,0,0,0,.14,0l1.4-1.11a.13.13,0,0,0,0-.09c-.08-1.06-.2-2.12-.19-3.18a4.1,4.1,0,0,1,.49-1.41c.55-1.23,1.15-2.43,1.62-3.69.07-.19-.35-.75-.66-.88-1.36-.55-1.06-1.08-.19-1.92,2.13-2,2.25-3.12.86-5.61,0,0,.07-.13.13-.21a.11.11,0,0,1,.12,0c2.21.83,2.23.81,2.6-2.12a.11.11,0,0,1,.07-.08c1.52-.66,3.25-1,4.27-2,1.35-1.34-.26-2.54-.93-3.77a.1.1,0,0,1,.11-.15c3.5.43,4.63-.32,4.85-2.77l0-.06c.79-.9,1.63-1.44,1.78-2.12.41-1.83,2.21-3.2,1.7-5.33a1.42,1.42,0,0,1,.6-1.17c2-1.17,4-2.25,6.24-3.5a.08.08,0,0,0,.05-.07c.68-2.88,2.46-6.06,1.74-9.68a.72.72,0,0,1,.13-.51c1-1.48,2.12-2.9,3.06-4.42.5-.83,1.19-1.92,1-2.71A6.75,6.75,0,0,0,554.74,304.22Z"/><path d="M572,207.75l-3.65-.63a.07.07,0,0,1-.06-.1c.44-1.37,1.07-1.67,2.11-.83a3.79,3.79,0,0,0,1,.76,6.4,6.4,0,0,0,1.41.18.08.08,0,0,0,.08-.07c.06-.55.32-1.23.08-1.58-.39-.58-1.17-.87-1.71-1.37a3.35,3.35,0,0,1-.61-1,.07.07,0,0,1,0-.11c.33-.1.65-.2,1-.28a5,5,0,0,0,1.44-.29,15.25,15.25,0,0,0,2.56-1.79,5.57,5.57,0,0,0,.88-1.53.09.09,0,0,0,0-.11c-2.21-1.15-2.22-1.41-.59-2.82a1.46,1.46,0,0,0,.38-1.19,1.21,1.21,0,0,0-.87-.68,11.41,11.41,0,0,0-1.94,0l-.31-.75,3-2.8a.08.08,0,0,0,0-.12l-1.13-.73a.08.08,0,0,1,0-.14c2.24-.87,4.77-.67,6.7-2.9a.07.07,0,0,0,0-.12c-3.61-1.23-6.41,0-9.07,1.83l-.42-.42,1.26-1.79a.08.08,0,0,0,0-.09c-.07-.12-.17-.24-.24-.36a.08.08,0,0,0-.1,0l-3,1.31a.08.08,0,0,1-.11-.07v-1.68a.07.07,0,0,0-.1-.07c-1.7.39-3.38.75-5,1.11a.08.08,0,0,1-.09-.06c0-.18,0-.37-.08-.55a.08.08,0,0,1,.06-.09l8.32-1.42a.07.07,0,0,0,.06-.07l0-.52a.08.08,0,0,0-.06-.08,7,7,0,0,0-5.54,0l-.08,0-.18-.67.43-.13a.09.09,0,0,0,0-.12,4,4,0,0,0-.46-.71c-.17-.15-.43-.36-.62-.33-2.22.35-4.82.17-6.55,1.29-1.56,1-2.48,1.69-4.06.55-.13-.09-.39,0-.61,0a.07.07,0,0,0-.07.06l-.28,2.16a.08.08,0,0,1-.1.06l-3.46-.83a.09.09,0,0,0-.1.07c-.1.83-.17,1.37-.3,2.4a.08.08,0,0,1-.14,0c-.55-.68-.8-1-1.11-1.35a2.88,2.88,0,0,0-1.13-.87c-.21,0-.55.49-.79.76a.08.08,0,0,1-.08,0c-.75-.26-1.67-.89-2.33-.69-1.39.43-3,.65-3.82,2.3-.21.43-1.09.69-1.69.74-1.12.08-1.88.29-1.74,1.68a1.37,1.37,0,0,1-.63,1.08c-1.69.84-3.44,1.57-5.14,2.38-.25.12-.4.44-.58.7a.09.09,0,0,0,0,.11c.31.2.61.5.91.5.59,0,1.19-.32,1.77-.31a6.72,6.72,0,0,1,1.59.43.07.07,0,0,1,.05.09l-.13.42s0,.05-.06.06l-2.87.36a.08.08,0,0,0,0,.13c1.65,2,3.58,2.08,5.65,1.74,2.95-.48,4,0,4.94,2.85a37.9,37.9,0,0,1,1.06,4.23,1.3,1.3,0,0,0,1.45,1c.38,0,.66.13.59,1.05a.07.07,0,0,1,0,.07l-.78.25a.52.52,0,0,0-.13.92h0l1.63,1.14a.07.07,0,0,1,0,.11,6.45,6.45,0,0,1-1.43,1.66c-1.21.71-1.68,1.78-1.14,2.88,1.6,3.27.88,7.67,5.28,9.64,2,.92,2.56,1.21,3.35-1.1.44-1.28,1.14-2.47,1.69-3.72a2.81,2.81,0,0,0,.36-1.34c-.18-1.34.59-1.68,1.67-1.81.77-.09,1.55-.24,2.33-.3,1.59-.11,2.76-.62,3-2.47.15-1.2,1-1.45,2.16-1.22a6.6,6.6,0,0,0,7.16-3.88A.08.08,0,0,0,572,207.75Z"/><path d="M531.72,206.94a11.1,11.1,0,0,1-2-.77,4.26,4.26,0,0,1-1.71-1.68,1.94,1.94,0,0,0-2.7-1.35,9.7,9.7,0,0,0-1.83.84.35.35,0,0,1-.49-.45h0c.68-1.45.22-2.09-1.4-2-1.36.06-1.77,1-2.17,2.07a1.16,1.16,0,0,1-.23.36.35.35,0,0,1-.61-.23,3.7,3.7,0,0,1,0-.47,5.7,5.7,0,0,1,.35-1,.35.35,0,0,0-.33-.47,2.88,2.88,0,0,0-2.93,2.23c-.37,1.21-.66,2.52.88,3a.35.35,0,0,1,.24.4l-.17.8a.36.36,0,0,0,.33.42c1.81,0,3.65-1,5.18.54.1.09.69-.46,1.06-.5.55-.05,1.37-.12,1.63.19a4.82,4.82,0,0,1,.69,1.64.34.34,0,0,0,.17.2c1,.51,2.15.78,2.39,1.41a3.53,3.53,0,0,1-.58,2.74c-.38.6-1.37.84-2.14,1.14-.43.16-1.08,0-1.4.21a5,5,0,0,0-.93,1.3.36.36,0,0,0,.09.47c.52.37,1.14.9,1.37.77,2-1.11,3,.07,4.35,1.25.91.81,1.85,1.94,3.49,2a.35.35,0,0,0,.31-.52l-.53-1a.34.34,0,0,1,.52-.43l.06,0c.22.19.46.36.7.53a.36.36,0,0,0,.49-.08c1.29-1.86.91-3.1-1.08-4a1.24,1.24,0,0,1-.59-.94,1.29,1.29,0,0,1,.55-1,1.25,1.25,0,0,1,1.07.35c.46.46.71,1.13,1.2,1.56.31.29,1.2.51,1.27.4a7,7,0,0,0,1.39-2.82c0-.38-1.33-.93-2.09-1.38s-1.72-1-2.62-1.47a.34.34,0,0,1-.12-.5C534.24,208.62,533.89,207.81,531.72,206.94Z"/><path d="M525.84,189.05a.26.26,0,0,1,.14.5c-.18,0-.38.11-.57.15-.67.17-1.42.22-1.18,1.12a.26.26,0,0,1-.34.31l-2-.74a.26.26,0,0,0-.34.32l.73,2.4a.26.26,0,0,1-.11.29l-3.59,2.2a1.12,1.12,0,0,0-.11,1.83,1.35,1.35,0,0,0,.6.27,27.4,27.4,0,0,0,6.27,0c1.64-.22,2-1.33,1.46-2.34a.25.25,0,0,1,.05-.31c1.26-1.21,2.42-2.42,3.69-3.48a2.85,2.85,0,0,1,2-.75c2.71.52,4.76-1.16,4.51-3.77a.27.27,0,0,1,.21-.28l4.37-.83a.25.25,0,0,0,.21-.22l0-.33a.25.25,0,0,0-.1-.23c-.52-.4-1.1-1.08-1.52-1-2.79.58-6-1.81-8.61,1.18a.26.26,0,0,1-.42,0l0-.07a1.47,1.47,0,0,0-1.55-.74,3.59,3.59,0,0,1-1.31.08,1.93,1.93,0,0,0-2.31.88c-.55.88-1.26.91-2.13.25a2,2,0,0,0-1.6-.33,12.15,12.15,0,0,0-2.07,1,1.07,1.07,0,0,0-.4,1.46C521.29,190.49,523.58,189.6,525.84,189.05Z"/><path d="M698.58,299.52a24.89,24.89,0,0,1,1.47,2.4c.76,1.74,1.86,2.14,3.33,1.18.73.48,1.49,1.27,1.81,1.13.59-.28,1-1.07,1.35-1.71.73-1.25,1.42-2.53,2-3.83.17-.36.22-1.07,0-1.25-1.39-1.19-1-2,.27-3s1-1.51-.34-2c-.78-.27-1.54-.59-2.11-.81-1.1,1.2-2,2.32-3.06,3.34a16.92,16.92,0,0,1-2.13,1.6,4.28,4.28,0,0,1-1.59.93C698.31,297.68,697.89,298.34,698.58,299.52Z"/><path d="M737.44,308.07c.38-1.68-1.22-2.21-1.77-3.31a6.24,6.24,0,0,0-.89-1.19c-2.23-.85-4-1.57-5.86-2.2a2.35,2.35,0,0,0-1.63-.13c-1.31.74-2.52,1.66-4,2.66a5,5,0,0,1,1.17.33,15.49,15.49,0,0,1,3.36,2.17c.3.31-.35,1.56-.62,2.6a7.74,7.74,0,0,1,2.68.49,1.85,1.85,0,0,0,2.88-.66c.81-1.18,1.67-1.15,2.52,0,.33.44.58.93.92,1.34,1,1.19,2.6,1.44,4.29.46-.71-.51-1.32-.91-1.89-1.36S737.37,308.36,737.44,308.07Z"/><path d="M502.61,203.34c-.81-.12-1.67-.51-2-.25a5.66,5.66,0,0,0-1,1.95c-.86-.11-.88-2.68-2.4-.78-.83-1.1-3-1-4,.5-.5.77-.82,1.1-1.73,1-.3,0-.66.49-1,.76.36.24.69.64,1.07.7a13.66,13.66,0,0,0,2.22,0l0,.38-3.18.79c2.6,2.34,12.18,3.21,13.11,1.35l-.54-1.42,1.61-.47C503.23,206.73,501.12,206,502.61,203.34Z"/><path d="M634,316.12c0,.28,0,.64-.1.84-.79,1.17-1.4,2.86-2.51,3.31-1.72.71-3.26,2.29-2.32,3.86s.15,2.14-.55,3.11a6.4,6.4,0,0,0-.63,1.52c1.68.5.36,1.82.82,2.86.51.15,1.23.62,1.77.47a4,4,0,0,0,2.18-1.42c1.33-2.12.64-4.88,2.11-7.05.64-.95.69-2.27,1.18-3.33C636.65,318.81,635.57,316.25,634,316.12Z"/><path d="M587.05,234.38c-.08.82-.15,1.53-.22,2.28l.66.24L586,239.11c1.57-.25,2.83-.37,4.06-.66a4.21,4.21,0,0,0,2.67-2.21c.17-.31-.13-1-.36-1.39s-.79-.88-1.07-1.38c-.78-1.4-1.51-2.83-2.23-4.21.13-.29.34-.71.59-1.25-.73-.15-1.56-.15-1.62-.36-.21-.77-.49-1.43-1.24-.75a4.67,4.67,0,0,0-.83,2.1,13.87,13.87,0,0,0-.26,1.95l3.06,2.71Z"/><path d="M691.81,297.16l-.06-.06,0,0Z"/><path d="M684.34,294.16a11.76,11.76,0,0,1,1.54,1c1,.9,2.6,1.7,2.91,2.83.85,3.09,3.13,5.09,4.93,7.45a1.82,1.82,0,0,0,1.58.59c.41-.17.63-1,.81-1.52.26-.77.4-1.58.6-2.38l.57-.08-1.35-1.2c-.48.39-1,1-1.13.89a2.72,2.72,0,0,1-1-1.08c-.71-1.15-1.37-2.33-2.05-3.49-1.62-1.1-3.3-2.11-4.82-3.33C685.93,293,685.25,292.92,684.34,294.16Z"/><path d="M640.61,207.65c-2.52-2.81-2.48-3.84.79-6.09a53.7,53.7,0,0,1,6-3.15c.56-.28,1.15-.51,1.85-.81-.93-1.16-1.78-1.22-2.81-.58a6.65,6.65,0,0,1-1.9.91c-2.81.63-5.59,1-7.25,4-1.07,1.92-2.27,3.39-.39,5.49A2.43,2.43,0,0,0,640.61,207.65Z"/><path d="M488.7,206.22c1.21-.74,2.57-1.21,3.83-1.88l.25-.15a1.4,1.4,0,0,0,.12-2.29,2.45,2.45,0,0,0-.38-.24,25.59,25.59,0,0,0-2.93-1.1,1.44,1.44,0,0,0-1,0l-.61.25c-.45.2-1,.32-1.29.67-.64.93-1.2,1.93-1.79,3A1.38,1.38,0,0,0,485,206C486.05,207.32,487,207.3,488.7,206.22Z"/><path d="M606.06,199.3a3.22,3.22,0,0,0,2.39,4.11c.41-1.16.07-2.89,2.12-3L611,202a13.75,13.75,0,0,0,1.93,0c.39-.07,1-.32,1-.6a1.32,1.32,0,0,0-.49-1.14c-.65-.4-1.47-.54-2.13-.93a11.58,11.58,0,0,1-1.71-1.43c-.48-.43-.92-1.26-1.4-1.27s-1.13.67-2,1.22l-2.85-.85c-1.33.34-.7,1.63-.29,2.48C604,201.22,605,199.35,606.06,199.3Z"/><path d="M721.65,256.65l-3.75,2.05,2.24,1.34,2.08-.4c0-.24.08-.67.09-.81,1.18,0,2.36.34,3.13-.08a2.6,2.6,0,0,0,1.33-3.32c-.17-.53.35-1.3.58-2-.27-.68-.56-1.58-1-2.42-.15-.31-.57-.72-.83-.69a1.27,1.27,0,0,0-.81.76,3.7,3.7,0,0,0,0,1.24c0,2.63-.42,3.21-2.45,3.2-.13.49-.26,1-.4,1.5Z"/><path d="M571.93,217.7c.75-.31,1.56-.7,2.41-1a2.55,2.55,0,0,0,1.52-3.22c-.45-1.43-1.43-.74-2.35-.63a40,40,0,0,1-4.38.22c-.49,0-1.29-.47-1.42-.3a13.71,13.71,0,0,0-1.34,2.49l2.39-.44c-.18.86-.32,1.5-.37,1.74Z"/><path d="M513.5,197.74a5.45,5.45,0,0,0,6,3,18.3,18.3,0,0,1,3.81.27c.34,0,.86.17,1,0,.22-.3.41-.93.25-1.12a3,3,0,0,0-1.54-1.16c-1-.17-2.05.11-3.05,0-1.35-.15-2.85-.17-3-2.13,0-.35-.71-.64-1.21-1.06a13.25,13.25,0,0,0-2.1,1.09C513.35,196.76,513.35,197.43,513.5,197.74Z"/><path d="M514.74,191.56c.19.15.58.28.58.42,0,2.1,1.62,2.23,2.86,1.89.66-.18,1.17-.9,1.84-1.74a1.35,1.35,0,0,0-.12-1.79,25.14,25.14,0,0,0-2.41-2.23c-.42-.32-1.53-.49-1.68-.27-.69,1-2,2-1.66,3.22C514.27,191.52,514.53,191.4,514.74,191.56Z"/><path d="M746.44,340.65a7.82,7.82,0,0,1-4.64,4.11,3.22,3.22,0,0,0-1.57,1.14,2.2,2.2,0,0,0-.16,1.77,9.24,9.24,0,0,0,1.68,1.91c.83-1,1.46-1.76,2.06-2.54.38-.51.62-1.44,1.06-1.53,1.94-.4,2-2.57,3.35-3.44a2.48,2.48,0,0,0-.54-1.41A1.38,1.38,0,0,0,746.44,340.65Z"/><path d="M711.73,297.93c-1-.07-1.7-.17-1.92,1.17-.15.95-.9,1.78-1.18,2.72a3.68,3.68,0,0,0,0,2.2,6.71,6.71,0,0,0,1.42,1.77l.8-1.76,1.79,2.13.76-.5c-.3-.71-.65-1.4-.88-2.13a3.43,3.43,0,0,1-.16-1.55,6.93,6.93,0,0,1,.61-1.51l-1.83.1-.33-1.28c1.55-.28,2.86-.51,4.17-.81,0,0-.15-.82-.14-.79A22.53,22.53,0,0,1,711.73,297.93Z"/><path d="M496.33,201.11a15,15,0,0,0,3.17-.33c1.07-.16,2.14-.34,3.38-.56a.86.86,0,0,0,.45-1.47l-.51-.48c-.42-.36-1.09-.53-1.36-1-.72-1.2-1.18-.79-2,0a16.85,16.85,0,0,1-2.88,1.65c-.23.14-.45.29-.67.45a.85.85,0,0,0-.2,1.2C495.9,200.85,496.11,201.09,496.33,201.11Z"/><path d="M538.61,238.92a7.09,7.09,0,0,0-1.49,1.51,9.7,9.7,0,0,0-.58,2.33c.6,0,1.2.09,1.8.1a7.42,7.42,0,0,0,.84-.1l.74,1.69.73-.84,1.28,1c1-2,.35-3.89-1.19-4.61a1.2,1.2,0,0,1-.6-.74C539.89,238,539.31,238.24,538.61,238.92Z"/><path d="M753.36,336.65c-2.81.38-1.93-3.21-4.26-3.9a5.24,5.24,0,0,0,.3,1.67,2.8,2.8,0,0,1-.23,4c-.85.95.05,3.17.7,3.41,1-1,1.91-1.67,2.64-2.52a15.67,15.67,0,0,0,1.32-2.17Z"/><path d="M702.07,306.83c-1.71-.18-3.38-.71-5.08-.84-.46,0-1,.81-1.49,1.26a11.94,11.94,0,0,0,1.55.89,9.08,9.08,0,0,0,1.4.22c2.1.48,4.16,1.49,6.47.48C704.51,307.24,703.4,307,702.07,306.83Z"/><path d="M581.73,237.28a12.64,12.64,0,0,1,2.76-.93c2.37-.24.55-2.19,1.32-3.09.18-.2-.08-.82-.2-1.22,0-.13-.28-.23-.44-.28-.73-.24-3.61,1.18-3.64,1.9C581.48,234.8,581.65,236,581.73,237.28Z"/><path d="M518.44,276.15a41,41,0,0,0-4.07-1.95c-2.45-1-3.77-.78-5.05.91.53-.13.91-.25,1.3-.33a4.58,4.58,0,0,1,5.35,2.86c.18.39,1.1.67,1.63.62a6.5,6.5,0,0,0,1.89-.82C519.14,277,518.88,276.4,518.44,276.15Z"/><path d="M506.8,206.18a1.83,1.83,0,0,0,1.57.06,3.64,3.64,0,0,0,.83-1.92,3.27,3.27,0,0,0-.23-1.86c-.25-.48-.88-1.09-1.3-1.07s-1,.66-1.29,1.16c-.17.31.07.87.16,1.54l-1.73-.9C504.16,205.19,506.45,205,506.8,206.18Z"/><path d="M725,249.25a15.79,15.79,0,0,0,2.51,0c.18-.21.76-.6.9-1.11a2,2,0,0,0-.32-1.69,27.11,27.11,0,0,0-3-2.09c-.28,1.08-.71,2.53-1,4C724,248.64,724.63,249.18,725,249.25Z"/><path d="M710.75,277.78a2,2,0,0,0-1.16.89,8.5,8.5,0,0,0-1.07,2.41,1.66,1.66,0,0,0,.49,1.47,16.77,16.77,0,0,0,3,.8c-.18-2-.24-3.32-.45-4.6C711.52,278.37,711,277.74,710.75,277.78Z"/><path d="M611.43,198.27c1.69.91,4-.11,5.14-2.14-1.61-.15-3.06-.36-4.51-.37a6.87,6.87,0,0,0-2,.64C610.53,197,610.82,198,611.43,198.27Z"/><path d="M705.22,203.22a41.72,41.72,0,0,0,5.23-.32,2.71,2.71,0,0,0,.13-.48c-1.32.17-1.58-3.51-3.57-.72a7.23,7.23,0,0,0-.65-.35,9.28,9.28,0,0,0-1.87-.61c-.13,0-.62.76-.53.95C704.27,202.29,704.77,203.21,705.22,203.22Z"/><path d="M493.11,198.06c.51-.34,1-.65,1.56-1,.36-.21.93-.31,1.05-.6a1.38,1.38,0,0,0-.18-1.28c-.24-.21-.89-.08-1.29.07a27.88,27.88,0,0,0-3.29,1.38,2.92,2.92,0,0,0-.37.24,1.19,1.19,0,0,0,0,1.88h0a1.17,1.17,0,0,0,1.44,0Z"/><path d="M508.31,197.06a1.9,1.9,0,0,0-.72.23,1.4,1.4,0,0,1-1.26,0,10.37,10.37,0,0,0-1.06-.44s-.45.58-.38.68c.6.86,1.11,2.05,2,2.39s1.95-.19,2.8-.63c.31-.16.38-1.27.17-1.78C509.69,197.22,508.83,197,508.31,197.06Z"/><path d="M723.61,233.8a4.73,4.73,0,0,0-1-.89l-.45.29c.59,2.29,1.18,4.58,1.88,7.26l2-.44c-.4-1.31-.75-2.64-1.23-3.92A11.78,11.78,0,0,0,723.61,233.8Z"/><path d="M525.77,278.91c-1.59-.71-3-1.34-4.36-1.85a11.72,11.72,0,0,0-.85,1.58l-1.69.17C519.84,280,524.13,280.18,525.77,278.91Z"/><path d="M730.81,347.66c-1.81.28-2.21.59-2.25,2,0,1,.17,1.82,1.42,1.83a2.7,2.7,0,0,0,2.39-2.58C732.31,348.44,731.36,348.07,730.81,347.66Z"/><path d="M515,201.92c-3-1.13-4.18-.31-4.4,3a.38.38,0,0,0,.6.34l3.88-2.68A.38.38,0,0,0,515,201.92Z"/><path d="M669.14,192.21c1.12-.52,1.12-1.31.51-2a2.18,2.18,0,0,0-1.88-.48,12.07,12.07,0,0,0-2.52,1.47C666.36,193.3,666.7,193.33,669.14,192.21Z"/><path d="M505.52,193.88a5.1,5.1,0,0,0,1.83,1.2,2.6,2.6,0,0,0,1.21,0,.75.75,0,0,0,.65-.76,1.3,1.3,0,0,0-.21-.89,17.17,17.17,0,0,0-2.32-1.66.76.76,0,0,0-.83,0c-.5.32-.92.53-1,.81A1.8,1.8,0,0,0,505.52,193.88Z"/><path d="M713.89,289.34c-2,2,.91,2.41,1,3.87,1.89-1.68,2.22-3.2,1.12-4.3C715.08,288,714.46,288.76,713.89,289.34Z"/><path d="M515.82,217.08a2,2,0,0,0,.25,3.14c.16.13.84-.38,1.26-.64.64-.4,1.27-.83,1.9-1.24C518.6,216.88,516.92,216.2,515.82,217.08Z"/><path d="M673,194.62c-1.42-3.21-1.42-3.21-4.82-.91C669.84,194.5,671.22,195.45,673,194.62Z"/><path d="M677,193.17c.8-2.2-1.78-1.08-2.06-2.27l-.82.11c-.11.9-.6,2-.24,2.64C674.38,194.48,676.7,194.07,677,193.17Z"/><path d="M669.7,288.41c0,1.47-.08,2.64,0,3.79,0,.27.68.69,1,.67a1.33,1.33,0,0,0,1-.78C672,290.66,671.8,289.36,669.7,288.41Z"/><path d="M528.57,365.65l0,0h0l0,0h0Z"/><path d="M529.12,367.87c1.36,1.06,2.16-.62,3.35-.44-1.35-.56-1.79-2.92-3.9-1.78C527.74,366.63,528.19,367.15,529.12,367.87Z"/><path d="M512.26,192.42a1.83,1.83,0,0,0-1.24,1.33,1.87,1.87,0,0,0,1.25,1.35c.38.05.83-.46,1.5-1a.42.42,0,0,0,0-.63C513.1,192.89,512.65,192.37,512.26,192.42Z"/><path d="M535.86,362.57c-.24,0-.32,1-.53,1.79l3.94-1-.11-.85A20.16,20.16,0,0,0,535.86,362.57Z"/><path d="M716.23,261c-.15.19,0,.63,0,1,1.4-.58.78,1.37,2.24,1.37-.09-1.23-.17-2.43-.3-4.16A21.64,21.64,0,0,0,716.23,261Z"/><path d="M710.14,274.08c-.14-1.34-.26-2.45-.41-3.92C707.72,272.12,707.83,273.25,710.14,274.08Z"/><path d="M501.64,192.66v-.06a.15.15,0,0,0-.12-.17c-.61-.18-1.28-.55-1.8-.39a5.75,5.75,0,0,0-1.71,1.31.18.18,0,0,0,0,.22s.52.22.87.37a1.1,1.1,0,0,0,.8,0C500.85,193.5,500,193.13,501.64,192.66Z"/><path d="M507.48,208.61c-1.36-.29-1.63.74-1.87,2.44l2.95-1.05C508.2,209.52,507.92,208.7,507.48,208.61Z"/><path d="M716.06,202.8c.05-.23.09-.47.13-.7l-4.14-.36C713.08,203.41,714.05,203.63,716.06,202.8Z"/><path d="M718.33,299.85V296C716.22,299,716.35,299,718.33,299.85Z"/><path d="M699.25,276.53l-.75-.11c-.38.88-.77,1.77-1.16,2.65l.73.61c.46-.43,1.11-.79,1.31-1.31A4.52,4.52,0,0,0,699.25,276.53Z"/><path d="M707.58,290.81c.79-1.58,1.42-2.84,2-4.1l-.59-.28C707.05,289.41,707.05,289.41,707.58,290.81Z"/><path d="M498.3,196.64l3-1.7-.39-.51C498.16,194.41,498.13,194.44,498.3,196.64Z"/><path d="M747.84,206.34c-.24-.35-.43-1-.73-1-1.17-.22-1.9.34-1.8,2.07Z"/><path d="M738.46,305.66l.21.72a6.48,6.48,0,0,0,2.12-.54c.41-.27.49-1,.72-1.61l-.46-.24Z"/><path d="M723.92,302.23l3-1.19C724.51,299.81,724.31,299.9,723.92,302.23Z"/><path d="M511.5,200.34l1.11-.22a.49.49,0,0,0,.38-.61,2.74,2.74,0,0,0-.18-.6c-.53.09-1,.23-1.57.37a.51.51,0,0,0-.35.6l0,.09A.51.51,0,0,0,511.5,200.34Z"/><path d="M742.72,301.92c-.28-.47-1-.68-1.52-1l-.32.43,1.47,2.52.57-.13C742.87,303.12,743,302.39,742.72,301.92Z"/><path d="M451.55,231.06c.14.2.65.41.72.34a8.3,8.3,0,0,0,.64-.8.67.67,0,0,0-.26-1h0a.69.69,0,0,0-.83.22,2.36,2.36,0,0,0-.29.48A.9.9,0,0,0,451.55,231.06Z"/><path d="M512.25,190.35l-.71-.78a.25.25,0,0,0-.37,0c-.36.41-.69.68-.69,1s.3.54.54.81a.25.25,0,0,0,.34,0l.86-.66A.24.24,0,0,0,512.25,190.35Z"/><path d="M734,321.3c-.29-.27-.34-.79-.52-1.19q-1.74-3.9-3.51-7.8c0-.05-.27,0-.41,0-.36,2.45-.71,4.9-1.09,7.52-4.37-2.29-4.83-3.11-3.82-7-1.85.23-3.61.13-5.1.73-1,.38-1.54,1.76-2.37,2.8l-2-1.55c-1.47,1.87-2.88,3.68-4.33,5.46a5.88,5.88,0,0,1-1.56,1.51c-1,.56-2.23.83-3.27,1.38-1.67.87-3.28,2-3.15,4.11a45.94,45.94,0,0,0,1.14,5.45c.33,1.75.54,3.52.81,5.28.1.64,0,1.71.35,1.85a4.59,4.59,0,0,0,2.45.16,25.33,25.33,0,0,0,3.39-.91,6,6,0,0,0,1.8-.72c4-3,7.68-2.51,10.63,1.38l1.67-1c0,.74-.28,1.36-.06,1.69.7,1.12,1.71,2,2.33,3.2a3.42,3.42,0,0,0,4.65,1.39l1.32,1,2.63-1.84c1.15-2.47,2.32-4.61,3.12-6.89a11.21,11.21,0,0,0,.76-5A18.15,18.15,0,0,0,734,321.3Z"/></g><path class="cls-3" d="M891.79,236.62H756.57l-7.92-7.93H723.46a2.63,2.63,0,1,1,0-1.32h25.15l7.92,7.92H968.63v1.32H891.79Z"/><path class="cls-4" d="M863.51,240.58H696.05a2.64,2.64,0,1,1,0-1.32H968.63v1.32H863.51Z"/><path class="cls-3" d="M938,254.22H721l-10.56,10.56H688l-5.28-5.28H665.45a2.63,2.63,0,1,1,0-1.32h17.23l5.28,5.28h22.45L721,252.9H938Z"/><path class="cls-4" d="M938,258.18H723.65l-11.88,11.88H665.45a2.63,2.63,0,1,1,0-1.32h46.28l11.88-11.88H938Z"/><path class="cls-4" d="M938,262.15H725L713.09,274H673.48l-6.6,6.61h-1.43a2.64,2.64,0,1,1,0-1.33h1.39l6.6-6.6h39.61L725,260.82H938Z"/><path class="cls-3" d="M964.25,271H755.15l-18.48,18.48H708.84a2.63,2.63,0,1,1,0-1.32h27.79l18.48-18.48h209.1Z"/><path class="cls-4" d="M964.25,276.23H755.15L731.39,300H708.84a2.63,2.63,0,1,1,0-1.32h22.51l23.76-23.76h209.1Z"/><path class="cls-5" d="M882.55,239a11.34,11.34,0,1,0-16.42,10.14v2.6a1.09,1.09,0,0,0,1.08,1.11h8.37a1.1,1.1,0,0,0,1.08-1.11V249A11.33,11.33,0,0,0,882.55,239Z"/><path class="cls-6" d="M871.4,227.64v24.87h-4.33c-.34,0-.63,0-.83-.25,0,0,0,.06,0,.06A.83.83,0,0,1,866,252h0a1,1,0,0,1,0-.25v-2.59A10.89,10.89,0,0,1,859.76,239a11.35,11.35,0,0,1,11.35-11.34Z"/><path class="cls-7" d="M875.2,238.5a.21.21,0,0,0,0-.11.18.18,0,0,0-.19-.19c-.33,0-.48.27-.61.48s-.18.3-.28.3-.17-.12-.28-.3-.27-.5-.6-.5h0c-.33,0-.49.27-.61.49s-.18.29-.28.29-.18-.11-.28-.3-.27-.49-.6-.5-.49.27-.61.49-.18.3-.28.3-.18-.12-.28-.31-.27-.49-.61-.49-.48.27-.61.48-.17.3-.28.3-.17-.19-.28-.38-.27-.57-.6-.57h0c-.1,0-.19.16-.19.26a.38.38,0,0,0,0,.16,29.23,29.23,0,0,1,1.9,7.21,31.41,31.41,0,0,1-.14,5.87.18.18,0,0,0,0,.14.2.2,0,0,0,.12.08h0a.19.19,0,0,0,.18-.17,31.64,31.64,0,0,0,.13-5.95,28.41,28.41,0,0,0-1.58-6.43.48.48,0,0,0,.36.15c.33,0,.49-.27.61-.49s.18-.3.28-.3.18.12.28.31.27.49.6.49.49-.27.61-.48.18-.3.28-.3.18.12.28.3.27.5.6.5.49-.27.62-.49.17-.29.28-.29.17.11.27.3.27.49.61.5a.55.55,0,0,0,.38-.16,29.45,29.45,0,0,0-1.64,6.42,34.21,34.21,0,0,0-.06,5.93.17.17,0,0,0,.18.16h0a.23.23,0,0,0,.12-.06.21.21,0,0,0,.05-.13,33.57,33.57,0,0,1,.06-5.87A29.63,29.63,0,0,1,875.2,238.5Zm-.32.19h0l0,.05Zm0-.3h0a.89.89,0,0,0-.3.36l0,0,0,0A.89.89,0,0,1,874.86,238.39Zm-.11.25,0,0Zm0,.06-.06.1Zm-.12.21,0,0Zm-.43.21h0a.28.28,0,0,1-.13,0A.28.28,0,0,0,874.16,239.12Zm-1.54-.13a.34.34,0,0,1-.23.11h0A.34.34,0,0,0,872.62,239Zm-.23.12h0a.34.34,0,0,1-.28-.17A.34.34,0,0,0,872.39,239.11Zm-1-.77a.38.38,0,0,0-.13.09A.38.38,0,0,1,871.34,238.34Zm-.6.71-.12,0h0Zm-.26,0a.47.47,0,0,1-.14-.14A.47.47,0,0,0,870.48,239.05Zm-.45-.63a.4.4,0,0,0-.3-.13h0A.4.4,0,0,1,870,238.42Zm-.3-.14h0a.47.47,0,0,0-.17,0A.47.47,0,0,1,869.73,238.28Zm-1.29.28c.11.19,0,.38.24.38l.16-.14h0a.39.39,0,0,1-.4-.24m.71,3.44c-.11-.4-.22-.78-.33-1.13.11.35.22.73.33,1.13a24.07,24.07,0,0,1,.69,3.61,18.72,18.72,0,0,1,.09,2.49c0,.17,0,.33,0,.49,0-.16,0-.32,0-.49a18.72,18.72,0,0,0-.09-2.49A24.07,24.07,0,0,0,869.15,242Zm.59,9.56Zm0,0s0,0,0,0,0,0,0,0,0-.09,0-.24Q869.79,251.51,869.79,251.52Zm0-.34c0-.07,0-.15,0-.24C869.84,251,869.84,251.11,869.83,251.18Zm-1.57-12.6,0,0,0,0Zm.58.59a.38.38,0,0,1-.24-.08.38.38,0,0,0,.24.08Zm.61-.62-.08.13,0,.07-.09.15.09-.15,0-.07.08-.13a.94.94,0,0,1,.1-.1A.94.94,0,0,0,869.45,238.55Zm.28-.16Zm.23.11a.39.39,0,0,0-.1-.08.39.39,0,0,1,.1.08,1.3,1.3,0,0,1,.17.26A1.3,1.3,0,0,0,870,238.5Zm.65.69-.09,0,.09,0h0Zm.17,0a.41.41,0,0,0,.13-.1A.41.41,0,0,1,870.78,239.15ZM871,239a.71.71,0,0,0,.1-.14A.71.71,0,0,1,871,239Zm.94-.23c-.1-.19-.2-.38-.39-.38h0c.19,0,.29.19.39.38a1.76,1.76,0,0,0,.14.23A1.76,1.76,0,0,1,871.9,238.76Zm.49.44Zm.89-.82h0a.27.27,0,0,0-.21.09.27.27,0,0,1,.21-.09h0c.17,0,.26.14.35.3C873.54,238.52,873.45,238.38,873.28,238.38Zm.88.73c-.1,0-.17,0-.24,0a.41.41,0,0,0,.24.11s0,0,.05-.05,0,0-.05,0Zm.2,0,0,0Zm-.07,0,0,0Zm.1-.05,0,0Zm.06,0s0,0,0,0S874.47,239.08,874.45,239.09Zm.09-.11,0,0Zm.16.18-.2.55Zm-.28.77c-.08.21-.16.45-.24.7C874.26,240.38,874.34,240.14,874.42,239.93ZM873,251.55l0,0Zm0,0h0Z"/><path class="cls-8" d="M888,310.39a23.7,23.7,0,1,1-1.65-33.48A23.69,23.69,0,0,1,888,310.39"/><path class="cls-9" d="M863.15,302.67c0-.21.28-1.11.1-1.24s-.46-.51-1-.5a9.12,9.12,0,0,1-1.17,0c.37-.75.24-1.37.68-2.1.35-.57-1.1-.31-1.29-.26s-.26.26-.31.57-.33.44-.3.61a1.92,1.92,0,0,0-.48,0,.85.85,0,0,1-.64-.08c-.29-.22-.49.12-.69-.25s-.11-.6-.25-.82a2.12,2.12,0,0,1-.1-1.94c.29-.43-.18-.87.27-1.22a1.92,1.92,0,0,0,.44-1.1c.38,0,1.11.39,1.44.42.09.21.61.45.64.11.12.1.24.28.42.15a.24.24,0,0,0-.19-.23.41.41,0,0,0,0-.34c.24-.14.48.07.64.07a.72.72,0,0,1,.5,0c.13,0,.44-.17.56-.21,0,.29.1.5.27.38s.35.1.57.31-.09.94.49,1.27c0,.25.34.93.47.91,1-.12-.34-2.45-.17-3.07a1.14,1.14,0,0,1,.64-.8c.3-.17,0-.87.28-1s.81.05,1.12-.07.29-.17.08-.28a2.29,2.29,0,0,1,.45-.31c0-.24-.38-.63-.34-.79,0,0,.17-.08.15,0s.31-.35.33-.38c.18-.32-.29-.5-.22-.76.16,0,.59.17.69-.06a2.56,2.56,0,0,0-.32-1.39c.4-.44,1.38.78,1.75.42.3,0,.45.05.45-.27-.12-.14-.33,0-.42-.19.06-.34.31-.48.65-.59.14-.06.15-.27.22-.4a1.58,1.58,0,0,0,.54-.22c.53-.21.16-.15.33-.23s.88-.08.83-.16c.08.16-.61.35-.56.67s.62-.12.91-.19c.26-.53.92-.25,1.47-.37,0-.16-.14-.08-.11-.22a.59.59,0,0,0,.56-.19c.08-.11,0-.22-.22-.19,0-.13-.25-1.18-.63-.71-.19.24.14.71.14,1a1.35,1.35,0,0,0-.49,0H872c-.11-.18-.17-.16-.35-.23s-.3-.47-.37-.45a1.63,1.63,0,0,0,.19-.34,3,3,0,0,0-.58-.11c.28,0,1.07-.17.68-.52s-.71,0-1,.14a3.43,3.43,0,0,0-.87.45c-.08.06-.42,0-.58.08,0-.2.56-.58.72-.67s.46,0,.64-.36a.32.32,0,0,1,.42-.3c.31,0,.78-.19,1.12-.17.59,0,1,.28,1.56.13a1.44,1.44,0,0,0,.57-.5,5.17,5.17,0,0,0,.68,0c.31,0,.57-.3.47-.53s0-.95-.55-.64c-.1,0-.07-.37-.45-.3a1.53,1.53,0,0,0,.3-.19c-.12-.22-1.13-.3-1.37-.2-.05-.13.13-.38-.15-.6s-.57-.1-.53-.37c.25.25.59-.17,0-.34,0-.12.39,0,0-.29-.1,0-.4-.25-.34-.35s-.8-1.06-1-.15c0,.13-1.06.49-1.14.32s-.19-.12-.33-.08-.24,0-.39-.13.26-.1.17-.49-.11-.24.07-.51-1,0-.93-.43c-.3-.18-.61-.49-1-.36s-.52.33-.83.25-.52-.34-.71-.14-.16.37.08.44a3.19,3.19,0,0,0-.3.42.34.34,0,0,0,.26,0,.43.43,0,0,0,.08.34c-.05.08-.07.25-.17.29-.08.36-.59.34-.08.62s1,.64.8,1.11-1.23.59-1.64.67c0,.35.19.35.2.69s.12.41.1.59c0,.44-.2.24-.4.44s-.39-.21-.6-.3a.59.59,0,0,1-.35-.68c0-.3.12-.81-.21-.87-.58-.12-1.3.07-1.81-.3-.26-.18-.44-.52-.79-.58-.19,0-.42.17-.57.22s-.31,0-.38.08c.11-.17-.05-.85-.43-.84s-.44-.46-.35-.64.78-.43.81-.64.72-.63.49-.61c.71-.24.57-.25-.08-.41a.66.66,0,0,1,.46-.19c.32,0,.65.18.49-.16a.93.93,0,0,0,1.1-.61c-.11,0-1,0-1-.22a1.12,1.12,0,0,0,1.11,0c.29-.21.49-.29.14-.41a3.13,3.13,0,0,1,1.06-.08.34.34,0,0,0-.34-.23c.17-.14.33.05.48.07a.73.73,0,0,0,.69-.27c.43-.49-.51-.28-.35-.69,0-.05.24,0,.32,0s.2.07.23-.11-.22-.2-.42-.25-1.47.22-.76.36a1.14,1.14,0,0,1-.34.15,1.76,1.76,0,0,1-.32.45c-.25.27-.48.35-.71,0,0-.06.5-.67-.05-.47-.23.08-.36.32-.55.44.1-.15-.12-.33.07-.42-.09-.09-.22-.05-.35,0a.63.63,0,0,1-.21.05c0-.22.24-.12.3-.27-.13-.19-.37,0-.31-.3s-.51-.07-.59,0c-.26.1-.41.36-.65.53a.14.14,0,0,0,.15,0c0,.11-.35.29,0,.32a1.5,1.5,0,0,0,.42,0,1.49,1.49,0,0,1,.36,0c0,.07-.5.25-.53.27s.1.08.18.05a.32.32,0,0,1,.13,0c-.11.22-.47.29-.64.41s0,.19-.16.39c-.31,0-.11-.21-.07-.34-.2-.06-.77-.05-.72.27-.21.1-1.11.53-1.32.42-.48-.26-1.09.41-1.37.74v0c-.62,0-.94.51-1.51.61.11-.1.22-.21.34-.3-.23-.18-1.24.69-1.4.87-.72.79-.22-.14-1-.22-.1.09.16.17.12.3a2.82,2.82,0,0,0-.61.23,3.39,3.39,0,0,0-.66.28l-.16.2,0,0a23.79,23.79,0,0,0-2.58,4,2,2,0,0,1,.72.07c-.13.37.81.26.79.48.1,0-.06.44,0,.43a2.76,2.76,0,0,0-.13.49c.19-.07,0-.37.22-.45a4.51,4.51,0,0,1,0,.66c0,.29-.23,1.09-.13,1.21s.36.45.28.55,0,.75-.06,1-.13.64-.16,1a5.09,5.09,0,0,0-.13,1.55,13.2,13.2,0,0,0,.48,1.82c.12.42.33.15.5.51s.31,1,.53,1.5c.08.18.67,1,.19.91,0,.5.71.52.76,1s.49.7.64,1.21c.42,0,0-.58,0-.68-.25,0-.39-.7-.42-1-.25-.1-.37-.62-.49-.84a2,2,0,0,1-.39-1.2c.49.13.61.59.78,1.08a2.66,2.66,0,0,0,.32.74.79.79,0,0,1,.35.68,4,4,0,0,1,1.17,1.7c.15.32-.09.51.1.81s.5.4.63.7a8.33,8.33,0,0,1,1.56.83,3.09,3.09,0,0,0,.86.41c.26.06.45-.17.69-.17.48,0,.92.79,1.28,1,.17,0,1.44.54,1.44.34.07,0,.65.92.84,1s-.16.25.1.43c0,0,0,0,.13.09l.78-.32a.82.82,0,0,1-.2-.66"/><path class="cls-9" d="M881.34,310.6c-.12-.43-.84,0-1.13-.23s-.52-.49-.86-.46a4,4,0,0,1-1.13-.15c-.29-.05-.39.3-.64.3.06-.39-.37-.54-.84-.46-.15-.21-.45-.18-.7,0a.86.86,0,0,0,.06-.23c-.2-.17-.42,0-.65,0a1.2,1.2,0,0,1-.79.42c.16-.44.63-.55.86-.93.12-.19-.31-.42-.37-.59-.22-.57-.17-.49-.66-.83a2.41,2.41,0,0,0-1.13-.38c-.36,0-.39.14-.71,0a2.51,2.51,0,0,0-.95-.2c.12-.66-.67-.8-1.06-.75a1.22,1.22,0,0,1,.3-.3.54.54,0,0,0-.3-.19c.18,0,.09-.35.15-.46-.32,0-.49.47-.68.23.06-.07.24,0,.23-.15a1.18,1.18,0,0,0-1.08.1c-.35.24-.66-.19-1-.15s-.42.1-.58-.15a.52.52,0,0,0-.53-.21c-.1-.08-.13-.44-.34-.31s-.13.27.07.27c-.16.16-.46.08-.6.23-.08,0-.19-.24,0-.28.61-.16-.21-.34-.33-.54a.77.77,0,0,0-.34-.31,3.54,3.54,0,0,0-1.65.08c-.14-.2-.37-.4-.54-.63l-.78.32c.11.06.24.11.19,0,.14.34.45.1.45.53.06.13.42.19.5.19a.53.53,0,0,1,.25,0,1.68,1.68,0,0,1,.38.23c.2.15.19.11.5.1a1.37,1.37,0,0,0-.15-.38c.33,0,.32-.18.68-.11,0,.14.23.47.16.57-.31.08-.66,0-.88.24-.09.1-.09.51-.23.53a.46.46,0,0,0-.37.4.46.46,0,0,0-.23-.15c-.13.11.2.21.08.31a.32.32,0,0,0-.23.19c0,.21.25.39.27.6a2.62,2.62,0,0,1,0,1c-.05.09-.57.39-.41.41-.25,0-.06.27-.34.29s-.27,0-.2.26-.51.82-.13,1c0,0,.34,0,.37,0,0,.34-.38.29-.52.52s.46.49.11.5c.1.18.33.22.49.3a4.29,4.29,0,0,0,.36.48,3.11,3.11,0,0,1,.71,1c.39.28.51.75.85,1a3.35,3.35,0,0,0,1,.57,7.17,7.17,0,0,1,1.11.55c.07.19.27.82.12,1a4.07,4.07,0,0,0,0,1.25c0,.28-.3-.15-.06.3a.18.18,0,0,1,.05.19s-.22.41-.41.3a.31.31,0,0,0,.15.17,23.78,23.78,0,0,0,5.13.13c-.14-.06-.16-.19-.39-.16.62-.1,1.16.21,1.74-.09.14-.07.34-.33.51-.43l0,0a1.74,1.74,0,0,0,1.16-.88c.07-.69,1.1-.79,1.41-1.26.73-.09,1.08.16,1.58-.28a4.83,4.83,0,0,0,.8-1.12c.17-.25-.29-.84-.13-1.13.34-.1.89-.15,1-.45C880.69,312,881.54,311.33,881.34,310.6Z"/><path class="cls-9" d="M854,278.08c.35,0,.33.19.56.41.05-.09.86-1,1-.91a.69.69,0,0,0-.19.19.11.11,0,0,1,.11,0,.79.79,0,0,0-.26.31,2.49,2.49,0,0,0,.77-.24,4.79,4.79,0,0,0,1-.64c.24,0,.49-.31.79-.33a1.31,1.31,0,0,0,.95-.47c-.13-.13-.3.17-.38.08.17-.16.79-.21.72-.46-.26-.08-.52.16-.76,0,.17-.14.09-.31.08-.49-.47,0-.58.33-.76.65-.14,0,0-.19-.08-.19-.25,0-.36.27-.56.42a3.48,3.48,0,0,1-1.18.4c-.35,0-.37-.23-.75-.19l-.18,0-.47.43a.31.31,0,0,1-.06.17c-.2.31-.21.18-.24.54C854,277.9,853.61,278,854,278.08Z"/><path class="cls-9" d="M852.88,278.52l-.27.29a1.83,1.83,0,0,0,.48-.22C853.06,278.53,853,278.51,852.88,278.52Z"/><path class="cls-9" d="M892.9,287.87a1.21,1.21,0,0,0-.11-.64A.54.54,0,0,0,892.9,287.87Z"/><path class="cls-9" d="M889,281.29c0-.06,0-.3.07-.19-.29.29.68.76.65,1.13a.29.29,0,0,0-.27,0l.15.3-.19,0c0,.31.41.26.54.49a1.11,1.11,0,0,1-.27-.12c-.19.7-.22.17.31.53a.14.14,0,0,1,0-.15,3.16,3.16,0,0,0,.8.3,2.5,2.5,0,0,0,0-.53,6.89,6.89,0,0,0-.65-.94c-.21-.32-.47-.62-.68-.91,0-.58-.26-.37-.49-.79a.18.18,0,0,0,.15-.12l-.5-.3a.53.53,0,0,0,.08.27l-.08,0C888.62,280.46,888.78,281.25,889,281.29Z"/><path class="cls-9" d="M893.91,291.24c-.14-.26-.29-.49-.41-.51-.29-.06.2-1.37-.37-1.42-.15.13-.51,0-.71-.07a.73.73,0,0,0-.76.22c0,.1-.94.27-1.15-.16-.13-.26.39-.24.5-.23.43,0,.36-.35.55-.62s0-.24-.1-.43a3,3,0,0,0,.19-.53c.61.07.08-.6.34-.75a1.6,1.6,0,0,0,.42.3.84.84,0,0,1,.22-.31,8.39,8.39,0,0,1,.61,1.33v0a23.19,23.19,0,0,0-2-4.87.48.48,0,0,0-.14.42c-.29-.14-.24.22-.38.32s-.19,0-.24-.06a.19.19,0,0,0-.18-.1,1.48,1.48,0,0,1,.12.41c-.26-.2-.31-.16-.65-.22,0,.33.68.88.89,1.18a1.62,1.62,0,0,1,.18,1.16c-.35-.26-1.45-.67-1.74-.37a5.38,5.38,0,0,0,.25,1.1,2.29,2.29,0,0,1-.1.9c.53.3-.14.93.76.76a.92.92,0,0,1-.09,1.39c-.41.3-.24.5-.47.82s.17.69-.17,1.08-.58.39-.68.7-.58.63-.58,1.16c-.42.2-.32.56-.61.84s0,.55-.07.83a.16.16,0,0,1,.15,0,3.23,3.23,0,0,1,.12,1,2.88,2.88,0,0,1-.25,1.14c-.32.39.05.51,0,.88s.07.7.45.62c-.22.45.65.73.53,1.33.12.36.74.75,1.06,1s.57.1.82-.1.47-.36.8-.15c.12.08,1.14-.79,1.33-.9.15.15.1.43.16.61a.68.68,0,0,0,.41-.27c.13.73-.39,1.32-.34,2v.08a23.8,23.8,0,0,0,1.32-11.62"/><path class="cls-9" d="M888.08,282.09c.38.62,1.5.52.91-.31.3,0-.38-.8-.57-.75a.58.58,0,0,0-.19.19.15.15,0,0,1,.15.11c-.14,0-.23-.11-.38-.11-.1.18.54.94.08.87"/><path class="cls-9" d="M872.14,270.82c-.21,0-.42,0-.64,0a2.15,2.15,0,0,0-1.1.16,1,1,0,0,1,.5.11h-.17c-.15,0-.34,0-.4.09a.31.31,0,0,0,.19,0s.34.21.3.33c1,.13,1.65-.38,2.5.25,0,.05-.39.32-.32.36a1.13,1.13,0,0,1,.59-.05.35.35,0,0,0-.15.07.7.7,0,0,1,.38.15s-.39,0-.34,0a.17.17,0,0,1,.18,0,.27.27,0,0,0-.18.11.12.12,0,0,1,.11,0h-.17c-.19.09.48.14.75.11,0,0,.05,0,.1,0s0,0-.1,0a.06.06,0,0,0,0,0c.26.09.69.06.83.26-.09,0-.07,0,0,.05s.07.09-.23,0-.69-.24-.93,0a.19.19,0,0,1,.15.11c-.24,0-.39.52-.38.53.18.17,1.13.07,1.29-.27l-.34-.15.53.11a.11.11,0,0,0-.11,0c0,.08.08.07.14.06s.08,0,.08,0c.13.47-.63.34-.87.49.21,0-.13.17-.16.27s0,.19.1.16l-.12.07c.14.15.44,0,.56.15-.67,0-.25.39.29.47,0,.29-.15.37.13.43-.23,0-.18.13-.08.27a2.81,2.81,0,0,0,.26.26c.07.19,0,.09.19.23s.35.05.39.11a1.74,1.74,0,0,0,0,.72c.31.1.5-.22.64,0a.41.41,0,0,0,.19.13l0,0a0,0,0,0,1,0,0c-.25.23.49.24.59.25s.06.16.16.16.14.05,0,.14a2.34,2.34,0,0,0,.79-.08.1.1,0,0,0,0,.15c.24.06.18-.18.22-.19s.41,0,.42.08a.36.36,0,0,0-.23.19l.57.11c-.23.27.1.15.34.26a1,1,0,0,1,.38,0,.8.8,0,0,0,.34,0c.07-.23,0-.19-.05-.16h0s.08-.08.16-.18-.24-.09-.11-.47-.14-.33-.3-.67a.57.57,0,0,0,.22,0,.18.18,0,0,0-.11-.19c.19,0,.38,0,.49-.3a2,2,0,0,1-.38-.26.36.36,0,0,0,.27,0,1.72,1.72,0,0,0-.27-.27.37.37,0,0,0,.27,0,.3.3,0,0,0-.16-.22,4,4,0,0,0,1.3.43,6,6,0,0,1,0-.74.53.53,0,0,0,.34.11c.08-.24-.12-.49.11-.68.17.06.42.18.59.08a2.12,2.12,0,0,0,.56-.13,23.66,23.66,0,0,0-10.93-3.58"/><path class="cls-9" d="M893.54,289.22s0,0-.07,0a.85.85,0,0,0,.17.45C893.61,289.52,893.58,289.37,893.54,289.22Z"/><path class="cls-9" d="M893.09,288.7c0-.41-.07-.6-.3-.79a2.19,2.19,0,0,0,.23.83C893,288.67,893,288.66,893.09,288.7Z"/><path class="cls-9" d="M865.52,271.57a2.61,2.61,0,0,1,.68-.11c-.17,0-.43.07-.68.11a3.48,3.48,0,0,1-.44.1.78.78,0,0,0-.3.16c.05,0,0,.08,0,.12s.26,0,.12-.11a1.79,1.79,0,0,1,.83,0c-.19,0-1.33.09-1.36.38.21,0,.78-.17.94,0-.2.07-2,.19-1.93.69a10.62,10.62,0,0,0,1-.25,7.3,7.3,0,0,0,1.1-.26c.39-.11,1.26.09,1.53-.37-.4,0-.87.19-1.25.08.31-.09.64-.05,1-.13s.25-.19.48-.21.81-.18.9-.39c-.21,0-.47.11-.68,0,.39-.13.84,0,1.21-.19a.24.24,0,0,1-.22,0c.24,0,1.69-.31,2.41-.39h-.12q-1,0-2,.06a18.64,18.64,0,0,0-1.84.34,6.34,6.34,0,0,0-1.94.53l.17,0Z"/><path class="cls-9" d="M864.69,271.77a.28.28,0,0,0,.11-.08S864.59,271.75,864.69,271.77Z"/><path class="cls-9" d="M857.81,275.17c1.32-.52,1.83-1,1.36-.95A2.69,2.69,0,0,0,857.81,275.17Z"/><path class="cls-9" d="M862.46,272.67l.09,0h0a.05.05,0,0,0,.05,0,4.62,4.62,0,0,1,1.1-.21,3.9,3.9,0,0,1,.94-.46.32.32,0,0,1-.22-.07l.05-.05-.14.05a3.31,3.31,0,0,0-.42.12h0s0,0,0,0l.05,0s-.14.06-.08.06.13-.06.08-.06c-.72.22-1.81.55-1.76.8A1.14,1.14,0,0,1,862.46,272.67Z"/><path class="cls-9" d="M885.34,276.56c0-.14-.39-.42-.51-.49s-.09,0-.1,0-.06.07-.28,0a3.06,3.06,0,0,0-.74-.23.1.1,0,0,1,0,.15,2.36,2.36,0,0,0-.8-.53c-.05.09.14.13.08.16s-.37-.16-.38,0,.62,0,.72.34a.3.3,0,0,1-.18,0c-.12,0-.24-.06-.28.06.2.12.51.1.65.3-.12,0-.18,0-.19.12.22.06,2.38.89,2.35.48,0,0,0-.08-.1-.17a.34.34,0,0,0-.28-.17"/><path class="cls-9" d="M867.14,299.33c0-.35-.39-.35-.64-.34,0-.09.11-.11,0-.19a3.09,3.09,0,0,0-.79-.22.58.58,0,0,0-.45-.32c-.32-.1-.61-.38-.91-.38s-.73-.17-1.18-.05c-.21.05-.79.36-.61.68.22.05.84-.34,1.06-.46.06.36.52.28.88.45s.53,0,.66.3.36.17.59.31c-.08.13-.26.09-.23.3C866.08,299.33,866.61,299.4,867.14,299.33Z"/><path class="cls-9" d="M865.52,300.24s.76.16.71,0S864.86,299.86,865.52,300.24Z"/><path class="cls-9" d="M867.61,300.17a1.12,1.12,0,0,0,.48,0,.44.44,0,0,0,.34.23c.08-.74,1.31.08,1.32-.46a1.82,1.82,0,0,0-1.34-.61c-.21,0-1-.18-1,.08,0,0,.48.51.45.49-.28.13-.55-.16-.83,0C866.93,300.34,867.42,300.14,867.61,300.17Z"/><path class="cls-9" d="M870.19,300.13c0,.37.83.17.78-.05C870.87,300.07,870.18,299.76,870.19,300.13Z"/><path class="cls-9" d="M859.82,274.31c.46.38.78-.24.91-.23C860.6,274.05,859.46,274,859.82,274.31Z"/><path class="cls-9" d="M856.53,275.9c-.15,0-.55-.08-.56.19.28.23,1.26-.1,1.17-.5a.44.44,0,0,1-.3-.15,1,1,0,0,0-.57.16C856.18,275.6,856.5,275.88,856.53,275.9Z"/><path class="cls-9" d="M862.27,273.59c.72-.08,1.39-.46,2.1-.47.21,0,.54-.05.66-.26.16.22.5.07.69,0a2.17,2.17,0,0,0,.64-.33,3.39,3.39,0,0,0-2,.26c-.28.1-.45.07-.73.18s-.67,0-.8.13c.08-.15.31-.09.41-.22a2.79,2.79,0,0,0-1,.26c0,.17.15,0,.15.12S862.22,273.4,862.27,273.59Z"/><path class="cls-9" d="M867.46,275.13c-.4-.13-.91,0-.91.46C866.91,275.73,867.5,275.62,867.46,275.13Z"/><path class="cls-9" d="M870.12,274.1a1.68,1.68,0,0,1-.54.08A2,2,0,0,0,870,274c0-.18-.32-.16-.59-.14s-.62.22-.66.1c.22,0-.32-.61-.53-.19,0-.23-.19-.18-.36-.14a.43.43,0,0,1-.24,0,.77.77,0,0,0,.34-.19c-.26-.19-1.66-.35-1.67.19a.35.35,0,0,0-.39,0,.35.35,0,0,1-.33,0,1.31,1.31,0,0,0,.27-.35c-.41-.38-1.13-.05-1.52.2a.16.16,0,0,1,.19,0c-.17,0-.45,0-.49.22a.35.35,0,0,1,.15.12.19.19,0,0,0-.22.15c0,.12.27,0,.3.15a.39.39,0,0,1-.42.11.26.26,0,0,0,.23-.11c-.12-.19-.35-.2-.38-.42.18-.2.47-.24.64-.45-.47.06-1.82.4-1.62.95a.3.3,0,0,0-.27.23l.3,0a.9.9,0,0,1,.46,0c-.14.12-.51,0-.57.22.15.18.46.09.64,0s.2,0,.24,0,.11,0,.36,0a10.35,10.35,0,0,1,1.56-.09c0-.22.15-.18.31-.14a.56.56,0,0,0,.36,0c.4-.16-.07-.21-.1-.27.17-.1,1.1.34,1.25.41a.84.84,0,0,1-.41.08c-.06.34.35.13.51.09.34-.1.29.1.6.17.84.18.15.83-.35.95,0,.14.33.23.26.34-.44,0-.76.11-1.18.13-.21,0-.66.21-.6.52.26,0,1.32-.16,1.33-.37s1.14.5,1.29.63a.15.15,0,0,0-.15.15c.32.25.81.2,1.06.57a6.48,6.48,0,0,1,1.32.11c0-.6-.42-.61-1.2-.78.48.1,1.16,0,1.24,0s.2.4.46.4a1.39,1.39,0,0,0,0-.41.29.29,0,0,0,.16,0c.07-.36-.22-.35-.38-.57.07,0,.1,0,.11-.08-.19,0-1.25-.63-1.18-.71a.35.35,0,0,0,.34.07c0-.19-.16-.12-.19-.26a1.15,1.15,0,0,1,1.1.05c.24.19.32.63.61.62,0-.11-.15-.25,0-.34a4.81,4.81,0,0,1,.53-.07c.12-.07-.12-.13,0-.19.28,0,.51-.19.13-.32s-.36,0-.51-.18c-.18,0-.43.12-.6,0a.22.22,0,0,0,.26-.08c-.27-.43-1.3-.3-1.74-.56a.16.16,0,0,1,.19,0c0-.1-.2-.14-.12-.19a1.27,1.27,0,0,0,.61.07c0-.18-.12-.18-.26-.17s-.23,0-.27-.09c.74,0,.23-.27,0-.23"/><path class="cls-9" d="M863.94,277.57c.16,0,1.19.59,1.17,0a1.22,1.22,0,0,0-.6-.07c.1-.35-.43-.12-.67-.22-.54-.21-.05-.15-.43-.19a.23.23,0,0,0-.19-.27,3,3,0,0,0-.35.59c-.12.39-.28.27-.44.62.2,0,.41-.16.6-.11a.45.45,0,0,0,0,.23c.33,0,.51-.32.83-.35C864,277.72,863.8,277.59,863.94,277.57Z"/><path class="cls-9" d="M865.9,276.34c-.14,0-.38.12-.49,0a1.28,1.28,0,0,0,.49-.34,2.34,2.34,0,0,0-1.14.49.16.16,0,0,1,.15,0,2.28,2.28,0,0,0-.75.42C864.49,277.19,865.93,277,865.9,276.34Z"/><path class="cls-9" d="M861.28,273.25a1.82,1.82,0,0,0,.84-.34A2.28,2.28,0,0,0,861.28,273.25Z"/><path class="cls-9" d="M860.42,276c-.13,0-.47-.17-.65-.19s-.48.4-.52.53C859.67,276.27,860.13,276.39,860.42,276Z"/><path class="cls-9" d="M864.47,271.84l.08,0Z"/><path class="cls-9" d="M861.27,273.73c.2.12.87-.27.79-.31C861.81,273.55,861.49,273.53,861.27,273.73Z"/><path class="cls-9" d="M861,274.4c.27.14.55,0,1.29-.7C862.61,273.43,861.43,274,861,274.4Z"/><path class="cls-9" d="M861,273.4c-.1,0-.91.1-.92.2C860.28,273.56,860.92,273.78,861,273.4Z"/><path class="cls-9" d="M859.07,275.37a.54.54,0,0,0-.15.15c.32,0,.89-.28,1-.64C859.38,274.81,858.88,275.35,859.07,275.37Z"/><path class="cls-9" d="M875.29,283.65l-.14,0a.86.86,0,0,0-.57.57,3,3,0,0,1-.36.7l0,0a.21.21,0,0,0,0,.31.43.43,0,0,0-.32.22.22.22,0,0,0,0,.11c0,.09.12.13.25.14h1.47c.08,0,.13,0,.13,0l-.06,0a1.06,1.06,0,0,0-.32.28.45.45,0,0,0,.18,0,.54.54,0,0,0,.32-.16l0,0a.49.49,0,0,1,.29-.14h.06c0,.32-.1.32.28.44l.12,0c.15,0,.16-.14.2-.3.1-.36-.37-.3-.45-.39s.06-.14.13-.17.18-.06.14-.21l-.08,0a.2.2,0,0,0-.11,0,.27.27,0,0,1-.12,0h0c0-.18.29-.4-.06-.48l-.15,0-.18,0-.16,0a.45.45,0,0,1-.32-.14c.43-.13-.11-.16-.29-.16H875c.1-.15.34-.43.46-.64a.32.32,0,0,0,.06-.16.81.81,0,0,0-.25,0"/><circle class="cls-8" cx="922.05" cy="203.97" r="16.88"/><path class="cls-10" d="M922.05,187.1v33.76a16.88,16.88,0,1,1,0-33.76Z"/><circle class="cls-9" cx="922.05" cy="203.97" r="13.38"/><path class="cls-11" d="M922.15,190.58v26.77a13.39,13.39,0,1,1,0-26.77Z"/><polygon class="cls-12" points="923.51 203.97 930.79 196.92 922.35 202.6 923.51 203.97"/><polygon class="cls-12" points="920.49 204.27 915.99 200.49 921.5 202.74 920.49 204.27"/><rect class="cls-7" x="925.81" y="203.49" width="0.24" height="9.26" transform="translate(129.73 724.57) rotate(-45.64)"/><rect class="cls-7" x="921.87" y="190.58" width="0.54" height="1.37"/><rect class="cls-7" x="928.25" y="192.22" width="0.25" height="0.94" transform="translate(221.27 -438.98) rotate(30.05)"/><rect class="cls-7" x="933.04" y="196.91" width="0.25" height="0.94" transform="translate(639.07 -709.97) rotate(60.1)"/><rect class="cls-7" x="933.18" y="209.85" width="0.25" height="0.94" transform="matrix(-0.5, 0.86, -0.86, -0.5, 1584.51, -490.55)"/><rect class="cls-7" x="928.49" y="214.63" width="0.25" height="0.94" transform="translate(1841.56 -58.98) rotate(150.25)"/><rect class="cls-7" x="915.54" y="214.75" width="0.25" height="0.94" transform="translate(1597.17 863.54) rotate(-149.66)"/><rect class="cls-7" x="910.77" y="210.04" width="0.25" height="0.94" transform="translate(1177.87 1106.48) rotate(-119.6)"/><rect class="cls-7" x="910.7" y="197.09" width="0.25" height="0.94" transform="translate(278.42 882.17) rotate(-59.51)"/><rect class="cls-7" x="915.42" y="192.34" width="0.25" height="0.94" transform="translate(23.55 475.18) rotate(-29.46)"/><rect class="cls-7" x="921.87" y="215.98" width="0.54" height="1.37"/><rect class="cls-7" x="934.48" y="203.28" width="0.54" height="1.37" transform="translate(1138.72 -730.78) rotate(90)"/><rect class="cls-7" x="909.08" y="203.28" width="0.54" height="1.37" transform="translate(1113.32 -705.38) rotate(90)"/><circle class="cls-7" cx="922.05" cy="203.97" r="1.54"/><circle class="cls-9" cx="922.05" cy="203.97" r="1.04"/><rect class="cls-5" x="866.13" y="250.15" width="10.5" height="10.27"/><path class="cls-13" d="M865.6,260.07c.41,2.12,2.83,3.75,5.75,3.75s5.34-1.63,5.76-3.75Z"/><path class="cls-13" d="M878.51,251.09c0,.52-.58.94-1.3.94H865.6c-.72,0-1.3-.42-1.3-.94h0c0-.52.58-.94,1.3-.94h11.61c.72,0,1.3.42,1.3.94Z"/><path class="cls-13" d="M878.46,254.24c0,.52-.58.94-1.3.94H865.55c-.72,0-1.3-.42-1.3-.94h0c0-.52.58-.94,1.3-.94h11.61c.72,0,1.3.42,1.3.94Z"/><path class="cls-13" d="M878.58,257.58c0,.52-.58.94-1.3.94H865.67c-.72,0-1.3-.42-1.3-.94h0c0-.52.58-.94,1.3-.94h11.61c.72,0,1.3.42,1.3.94Z"/><path class="cls-8" d="M999.42,309.38c0,4.26-3,7.71-6.77,7.71H957.4c-3.74,0-6.78-3.45-6.78-7.71V284.31c0-3.58,17.16-13.19,22.59-16.13a3.3,3.3,0,0,1,3.15-.06c5.39,2.87,23.06,12.58,23.06,16.19Z"/><path class="cls-9" d="M991,272.11h-31.9c-1.53,0-2.81.93-2.81,2.12V314c0,1.19,1.26,2.14,2.79,2.14l0,0H991v0a2.61,2.61,0,0,0,2.76-1.92,1.55,1.55,0,0,0,0-.22V274.23C993.76,273,992.52,272.11,991,272.11Z"/><rect class="cls-6" x="961.95" y="276.93" width="26.92" height="0.79"/><rect class="cls-6" x="961.95" y="278.87" width="18.74" height="0.79"/><rect class="cls-6" x="961.95" y="280.89" width="18.74" height="0.79"/><rect class="cls-6" x="961.95" y="282.98" width="25.51" height="0.79"/><rect class="cls-6" x="961.95" y="285" width="16.51" height="0.79"/><rect class="cls-6" x="961.95" y="286.87" width="21.7" height="0.79"/><rect class="cls-6" x="961.95" y="288.66" width="24.68" height="0.79"/><rect class="cls-6" x="961.95" y="290.43" width="19.29" height="0.79"/><rect class="cls-6" x="961.95" y="292.24" width="23.7" height="0.79"/><rect class="cls-6" x="961.95" y="294.07" width="25.51" height="0.79"/><rect class="cls-6" x="961.95" y="296.09" width="16.51" height="0.79"/><rect class="cls-6" x="961.95" y="297.96" width="21.7" height="0.79"/><rect class="cls-14" x="961.95" y="299.75" width="24.68" height="0.79"/><rect class="cls-14" x="961.95" y="301.52" width="19.29" height="0.79"/><rect class="cls-14" x="961.95" y="303.32" width="23.7" height="0.79"/><rect class="cls-14" x="961.95" y="305.1" width="23.7" height="0.79"/><path class="cls-15" d="M984.44,272.58l1.07,8.45a1,1,0,0,0,1.12,1.17c1.27.07,7.13-1.31,7.13-1.31Z"/><path class="cls-10" d="M984.44,272.12v7.59a1,1,0,0,0,1.11,1.18c1.28.07,8.21,0,8.21,0Z"/><path class="cls-16" d="M999.42,284.9v24.87a8.4,8.4,0,0,1-1.57,4.61,7.29,7.29,0,0,1-4.82,2.76l-18-17.81Z"/><path class="cls-16" d="M975,299.33l-18,17.81a7.27,7.27,0,0,1-4.82-2.76,8.48,8.48,0,0,1-1.58-4.61V284.9Z"/><path class="cls-17" d="M997.85,314.38a7.29,7.29,0,0,1-4.82,2.76H957a7.27,7.27,0,0,1-4.82-2.76L975,299.33Z"/><path class="cls-1" d="M892.89,213.27h-1.33a9.86,9.86,0,0,0-.87-2.1h0l.94-.95a.54.54,0,0,0,0-.76L890,207.81a.54.54,0,0,0-.76,0l-.88.94a5.92,5.92,0,0,0-2-.85h0v-1.33c0-.3-.37-.45-.67-.45h-2.31c-.3,0-.2.15-.2.45v1.33a10.43,10.43,0,0,0-2.24.87h-.09l-1-.95a.58.58,0,0,0-.78,0l-1.65,1.64a.55.55,0,0,0,0,.76l.94,1a9.64,9.64,0,0,0-.85,2.1h-1.34c-.29,0-.17.2-.17.5v2.31c0,.3-.12.78.17.78h1.33a6,6,0,0,0,.87,1.95v-.06l-.94.92a.51.51,0,0,0,0,.74l1.63,1.63a.54.54,0,0,0,.76,0l1.11-.94a9.72,9.72,0,0,0,2.24.85h0v1.33c0,.29-.09.74.21.74h2.32c.29,0,.65-.45.65-.74V222a6.41,6.41,0,0,0,2-.87h0l.92.94a.53.53,0,0,0,.75,0l1.64-1.64a.53.53,0,0,0,0-.75l-.95-.82a5.7,5.7,0,0,0,.85-1.95h1.34c.3,0,1-.49,1-.79v-2.32C893.91,213.46,893.19,213.27,892.89,213.27Zm-9.7,4.71-.1,0-.28-.16-.14-.08-.13-.1-.06,0a3.39,3.39,0,0,1-.34-.31,2.6,2.6,0,0,1-.3-.36l-.11-.15a3.93,3.93,0,0,1-.26-.5,3.33,3.33,0,0,1-.27-1.31,3.3,3.3,0,0,1,1.1-2.46l.18-.16.06-.05.13-.09.42-.24.15-.07a3.32,3.32,0,0,1,1.3-.26,3.4,3.4,0,0,1,1.52.36l.14.08a1.37,1.37,0,0,1,.2.13l.13.09.07.05.12.1a1.37,1.37,0,0,1,.17.17l.12.11c.08.1.17.2.25.31l.09.14.08.13a2.26,2.26,0,0,1,.11.22,3.34,3.34,0,0,1,.33,1.44,3.86,3.86,0,0,1-.1.84s0,.1,0,.15a2.25,2.25,0,0,1-.08.24l-.06.15-.05.09a1.14,1.14,0,0,1-.1.19s0,.1-.08.14l-.07.11-.07.09-.05.06a1.47,1.47,0,0,0-.1.13l0,0-.12.12,0,.06-.24.21-.07,0-.13.1-.13.08-.07.05-.14.07a3.28,3.28,0,0,1-1.52.37,3.47,3.47,0,0,1-1.25-.24Z"/><path class="cls-9" d="M885.7,224.2h-2.32a.34.34,0,0,1-.27-.11.89.89,0,0,1-.13-.66v-1.35a10.45,10.45,0,0,1-2-.77l-1,.86a.8.8,0,0,1-.5.21h0a.71.71,0,0,1-.5-.21l-1.64-1.63a.7.7,0,0,1,0-1l.82-.8a5.75,5.75,0,0,1-.76-1.7h-1.19a.33.33,0,0,1-.26-.11.85.85,0,0,1-.1-.64c0-.08,0-.15,0-.21v-2.31c0-.07,0-.13,0-.19a.43.43,0,0,1,.06-.38.4.4,0,0,1,.3-.11h1.2a9.7,9.7,0,0,1,.76-1.89l-.84-.86a.73.73,0,0,1,0-1l1.65-1.64a.74.74,0,0,1,1,0l.91.87a11.44,11.44,0,0,1,2.08-.81V206.4a.48.48,0,0,1,.07-.37.44.44,0,0,1,.32-.1h2.31c.42,0,.85.23.85.63v1.19a6.14,6.14,0,0,1,1.8.76l.78-.83a.72.72,0,0,1,1,0l1.63,1.64a.68.68,0,0,1,.21.51.71.71,0,0,1-.21.51l-.85.85a8.81,8.81,0,0,1,.78,1.9h1.2c.26,0,1.21.17,1.21.66v2.32c0,.42-.83,1-1.21,1H891.7a5.76,5.76,0,0,1-.76,1.73l.83.73a.68.68,0,0,1,.22.5.72.72,0,0,1-.21.51l-1.64,1.64a.67.67,0,0,1-.5.21h0a.71.71,0,0,1-.51-.21l-.81-.83a6.29,6.29,0,0,1-1.79.77v1.19A1,1,0,0,1,885.7,224.2Zm-2.33-.36h2.33c.17,0,.47-.35.47-.56V221.8l.14,0a5.79,5.79,0,0,0,1.74-.72L888,221l1.29-.22-.61.38.75.77a.36.36,0,0,0,.25.11h0a.32.32,0,0,0,.24-.11l1.64-1.63a.39.39,0,0,0,.1-.25.37.37,0,0,0-.1-.25l-1-.91.08-.13a5.57,5.57,0,0,0,.82-1.9l0-.15h1.49c.25,0,.84-.45.84-.6v-2.32c0-.1-.51-.29-.84-.29h-1.47l0-.13a8.89,8.89,0,0,0-.85-2.06l0-.06,0-.15,1-1a.35.35,0,0,0,0-.5l-1.64-1.64a.35.35,0,0,0-.5,0l-1,1-.13-.08a5.78,5.78,0,0,0-2-.82l-.14,0v-1.49c0-.17-.28-.27-.49-.27h-2.34v.08s0,.12,0,.19V208l-.21.06a9.68,9.68,0,0,0-2.12.83l0,0h-.22l-1-1a.36.36,0,0,0-.26-.11.38.38,0,0,0-.26.1l-1.65,1.64a.36.36,0,0,0,0,.5l1,1.07-.07.12a8.41,8.41,0,0,0-.83,2l0,.14h-1.49s0,0,0,.08a1.4,1.4,0,0,1,0,.23v2.31a1.94,1.94,0,0,1,0,.24,1.36,1.36,0,0,0,0,.35h1.48l0,.15a5.44,5.44,0,0,0,.71,1.66l.13-.13.1,1.19-.31-.48-.75.74a.33.33,0,0,0,0,.48l1.63,1.63a.39.39,0,0,0,.25.1h0a.33.33,0,0,0,.25-.11h0l1.21-1,.11.06a9.19,9.19,0,0,0,2.2.83l.13,0v1.48a1,1,0,0,1,0,.17,1.14,1.14,0,0,0,0,.39Zm1.17-5.39a3.68,3.68,0,0,1-1.32-.25l-.11,0-.1-.05-.3-.16-.14-.09-.14-.1-.06-.05a3.37,3.37,0,0,1-.68-.7l-.11-.16a3.74,3.74,0,0,1-.28-.52,3.67,3.67,0,0,1-.28-1.39,3.53,3.53,0,0,1,1.15-2.6l.2-.16.06,0,.14-.1a3.91,3.91,0,0,1,.44-.26l.16-.07a3.58,3.58,0,0,1,3,.11l.15.08.21.14a.71.71,0,0,1,.14.1l.07,0,.13.1.18.18.12.12a3,3,0,0,1,.27.33l.09.14.09.14.12.23a3.48,3.48,0,0,1,.34,1.52,3.22,3.22,0,0,1-.11.88c0,.06,0,.11,0,.17l-.09.24a.77.77,0,0,1-.07.16.31.31,0,0,1,0,.1l-.1.2-.09.15a.76.76,0,0,1-.08.11l-.06.1-.06.06a1.47,1.47,0,0,1-.1.13l-.06.07-.12.12-.06.06-.25.22-.07.05a.71.71,0,0,1-.14.1l-.14.09-.07,0-.15.09A3.55,3.55,0,0,1,884.54,218.45Zm0-6.67a3.22,3.22,0,0,0-1.23.25l-.14.06-.39.23-.13.09-.06,0-.17.15a3.15,3.15,0,0,0-1,2.33,3.09,3.09,0,0,0,.25,1.24,3,3,0,0,0,.25.47.71.71,0,0,0,.1.14,3,3,0,0,0,.28.34l.32.29.06.05.13.09.12.08.27.14.09,0h0l.1,0a3.17,3.17,0,0,0,1.18.22,3.08,3.08,0,0,0,1.43-.34l.14-.07.06,0,.13-.08.12-.09.06-.05.23-.2.06-.05.1-.11,0-.05.1-.12,0-.06.06-.09a.36.36,0,0,0,.07-.1.57.57,0,0,0,.08-.13l.1-.18,0-.09.06-.14c0-.07,0-.15.08-.22s0-.1,0-.15a3,3,0,0,0,.1-.79,3.19,3.19,0,0,0-.31-1.36,2.12,2.12,0,0,0-.11-.21l-.08-.13-.08-.12-.24-.3-.1-.1-.17-.16-.12-.1-.06,0-.12-.09-.19-.12-.14-.07A3.08,3.08,0,0,0,884.54,211.78Z"/><path class="cls-1" d="M992,254.84h-1.33a9.7,9.7,0,0,0-.87-2.15v0l.94-1a.55.55,0,0,0,0-.77l-1.64-1.64a.54.54,0,0,0-.76,0l-.81.94a5.65,5.65,0,0,0-1.94-.85h0V248c0-.3-.51-.35-.8-.35h-2.32c-.29,0-.47,0-.47.35v1.33a6.79,6.79,0,0,0-2.1.87h0l-1-.94a.54.54,0,0,0-.76,0l-1.64,1.64a.54.54,0,0,0,0,.76l.94,1a9,9,0,0,0-.85,2.15h-1.34c-.3,0-.24.1-.24.4v2.31c0,.3-.06.88.24.88h1.33a5.7,5.7,0,0,0,.87,1.9v-.08l-.94.9a.5.5,0,0,0,0,.73l1.64,1.63a.54.54,0,0,0,.76,0l1-.94a6.49,6.49,0,0,0,2.1.85h0v1.34c0,.29.19.84.48.84h2.32c.3,0,.79-.55.79-.84v-1.34a5.71,5.71,0,0,0,1.94-.87h-.06l.91.94a.53.53,0,0,0,.75,0l1.63-1.64a.53.53,0,0,0,0-.75l-.94-.77a5.46,5.46,0,0,0,.85-1.9H992c.3,0,1-.6,1-.89v-2.32C992.94,254.93,992.28,254.84,992,254.84Zm-9.7,4.61-.09,0-.29-.16-.13-.08-.13-.1-.07,0-.34-.31c-.11-.12-.2-.23-.3-.36l-.1-.15a3,3,0,0,1-.26-.5,3.17,3.17,0,0,1-.27-1.31,3.33,3.33,0,0,1,1.09-2.47l.18-.15.07-.05.13-.09a2.86,2.86,0,0,1,.42-.24l.14-.07a3.38,3.38,0,0,1,2.82.1l.14.08.21.13.13.09.06.05.12.1.18.16.11.12a3.76,3.76,0,0,1,.25.31l.09.14.08.13.12.22a3.28,3.28,0,0,1,.33,1.44,3.34,3.34,0,0,1-.11.84c0,.05,0,.1,0,.15s-.05.16-.08.23a1.07,1.07,0,0,1-.07.15,1,1,0,0,1,0,.1l-.11.19a1,1,0,0,1-.08.14l-.07.11-.07.09,0,.06-.11.12,0,.06-.11.12-.06.06-.24.21-.06,0-.13.1-.14.08-.07,0-.14.08a3.35,3.35,0,0,1-1.52.37,3.38,3.38,0,0,1-1.24-.24Z"/><path class="cls-9" d="M984.79,265.77h-2.32c-.44,0-.66-.66-.66-1v-1.2a6.58,6.58,0,0,1-1.9-.76l-.86.85a.72.72,0,0,1-1,0L976.39,262a.69.69,0,0,1,0-1l.81-.77a5.74,5.74,0,0,1-.75-1.64h-1.18a.36.36,0,0,1-.26-.11c-.18-.18-.17-.54-.17-.83v-2.55c0-.13,0-.26.09-.35a.42.42,0,0,1,.34-.11h1.2a9,9,0,0,1,.76-1.94l-.85-.92a.72.72,0,0,1,0-1l1.64-1.64a.72.72,0,0,1,.51-.21.75.75,0,0,1,.51.21l.85.85a6.87,6.87,0,0,1,1.91-.78V248c0-.53.46-.53.65-.53h2.32c.85,0,1,.33,1,.53v1.19a5.6,5.6,0,0,1,1.73.76l.72-.83a.71.71,0,0,1,1,0l1.64,1.64a.74.74,0,0,1,0,1l-.86.88a9.8,9.8,0,0,1,.79,2H992c.12,0,1.14,0,1.14.56v2.32c0,.42-.75,1.07-1.14,1.07h-1.19a5.33,5.33,0,0,1-.75,1.68l.83.68a.72.72,0,0,1,0,1l-1.63,1.64a.7.7,0,0,1-.5.21h0a.67.67,0,0,1-.5-.21l-.8-.82a5.69,5.69,0,0,1-1.69.76v1.19A1.27,1.27,0,0,1,984.79,265.77Zm-4.93-3.44.12.07a6.24,6.24,0,0,0,2,.83l.15,0v1.49c0,.27.17.66.29.66h2.32c.19,0,.6-.46.6-.66v-1.48l.14,0a5.21,5.21,0,0,0,1.66-.71l-.13-.13,1.19-.09-.48.29.74.76a.31.31,0,0,0,.24.1h0a.33.33,0,0,0,.24-.1l1.63-1.64a.35.35,0,0,0,.1-.24.37.37,0,0,0-.1-.25l-1.06-.86.1-.16a5.24,5.24,0,0,0,.81-1.82l0-.15H992c.21,0,.78-.52.78-.7v-2.32A1.19,1.19,0,0,0,992,255h-1.46l0-.13a9.92,9.92,0,0,0-.85-2.11l0,0v-.17l1-1a.35.35,0,0,0,.1-.25.35.35,0,0,0-.1-.26L989,249.41a.35.35,0,0,0-.49,0l-.91,1-.13-.08a5.83,5.83,0,0,0-1.89-.83l-.15,0V248c0-.08-.23-.17-.61-.17h-2.32c-.28,0-.28,0-.28.17v1.48l-.15,0a6.73,6.73,0,0,0-2,.84l-.06,0-.14,0-1-1a.39.39,0,0,0-.25-.1.4.4,0,0,0-.26.1l-1.63,1.64a.36.36,0,0,0,0,.5l1,1.12-.07.12a9.1,9.1,0,0,0-.83,2.1l0,.14h-1.53v2.65c0,.13,0,.51.06.57h1.48l0,.15a4.94,4.94,0,0,0,.69,1.6l.16-.15.06,1.19-.29-.47-.75.72a.35.35,0,0,0-.1.24.34.34,0,0,0,.1.23l1.64,1.63a.36.36,0,0,0,.5,0Zm3.77-2.41a3.67,3.67,0,0,1-1.31-.25l-.11-.05h0l-.1-.05-.3-.16-.14-.09-.14-.1-.07-.05a2.82,2.82,0,0,1-.36-.33,2.76,2.76,0,0,1-.31-.37l-.11-.16a3.74,3.74,0,0,1-.28-.52,3.54,3.54,0,0,1,.87-4l.19-.16.07-.06.14-.09a3.91,3.91,0,0,1,.44-.26l.15-.07a3.6,3.6,0,0,1,1.37-.27,3.37,3.37,0,0,1,1.6.38l.15.08a1.64,1.64,0,0,1,.22.14l.14.09.06.06.13.1.19.18.12.12a2.91,2.91,0,0,1,.26.33l.1.14a.64.64,0,0,1,.08.14,1,1,0,0,1,.12.23,3.49,3.49,0,0,1,.35,1.52,3.66,3.66,0,0,1-.11.88l0,.17a2.25,2.25,0,0,1-.08.24l-.07.16-.05.1a1.28,1.28,0,0,1-.11.2,1.09,1.09,0,0,1-.08.15l-.08.11a.86.86,0,0,0-.07.1l-.05.06-.11.13,0,.07-.12.12-.06.06a2.75,2.75,0,0,1-.26.22l-.06.05-.14.1-.14.09-.08,0-.15.08A3.38,3.38,0,0,1,983.63,259.92Zm0-6.67a3,3,0,0,0-1.22.25l-.14.06a3.18,3.18,0,0,0-.4.23l-.12.09-.06,0-.18.15a3.19,3.19,0,0,0-1,2.33,3.27,3.27,0,0,0,.25,1.24,4.23,4.23,0,0,0,.25.47l.1.14c.09.12.18.23.28.34a3.11,3.11,0,0,0,.33.29l.06.05.12.09.13.08.27.14.09,0h0l.1.05a3.22,3.22,0,0,0,2.61-.12l.13-.07.07,0,.12-.08.13-.09.06-.05.23-.2.05-.05.11-.11,0-.06.09-.11,0-.06.06-.09.07-.1.08-.13.09-.18,0-.09.06-.14.07-.22a.83.83,0,0,0,0-.15,3.15,3.15,0,0,0-.21-2.15l-.1-.21a.57.57,0,0,1-.08-.13l-.09-.12-.23-.3a1.14,1.14,0,0,1-.11-.11l-.17-.15-.11-.1-.06,0-.13-.09-.19-.12-.13-.07A3.12,3.12,0,0,0,983.63,253.25Z"/><path class="cls-1" d="M963.79,210.74l-8.6-3.44-.18.09,2.76,4.59-9.4,0v1.46l9.4,0L955,218l.18.12,8.62-3.4,9-2Z"/><path class="cls-9" d="M955.14,218.31l-.41-.27,2.7-4.41-9.25,0v-1.83l9.25,0-2.69-4.47.43-.22,8.67,3.47,9,2,.81.18-.81.17-9,2Zm-6.59-5.07,9.54,0-2.82,4.61,8.46-3.34h0l8.2-1.79-8.19-1.82h0l-8.41-3.36,2.77,4.61-9.54,0Z"/><path class="cls-1" d="M915.82,314.16l-9.4,0,2.76-4.58-.18-.09L900.4,313l-9,2,6.66,1.45a30.59,30.59,0,0,1,4.58,1.39l6.39,2.52.18-.12-2.78-4.54,9.39,0Z"/><path class="cls-9" d="M909.05,320.52l-8.7-3.43-9-2-.81-.18,2.22-.49,7.57-1.68,8.67-3.47.43.21L906.75,314l9.25,0v1.83l-9.26,0,2.7,4.42ZM892.25,315l8.19,1.78h0l8.45,3.33-2.82-4.6,9.54,0v-1.1l-9.54,0,2.77-4.61-8.42,3.37h0l-7.58,1.69Z"/><path class="cls-7" d="M972.44,260.05A48.44,48.44,0,1,1,924,211.61,48.44,48.44,0,0,1,972.44,260.05Z"/><circle class="cls-5" cx="924" cy="260.05" r="34.03" transform="translate(-7.66 28.96) rotate(-1.79)"/><circle class="cls-7" cx="924" cy="260.05" r="24.03" transform="translate(590.12 1160.01) rotate(-85.36)"/><path class="cls-18" d="M935.46,260.05A11.46,11.46,0,1,1,924,248.59,11.46,11.46,0,0,1,935.46,260.05Z"/><path class="cls-10" d="M998.34,231.9l-6.21-4.28a3.38,3.38,0,0,0-1.48-3.65l.73-7.71c.1-1-.6-1.55-1.57-1.12l-16.24,7.41a4.25,4.25,0,0,0-2.12,2.7l-1.57,8.08-44,24c-1.67.85-3.3,1-2.46,2.65s1.92.42,3.59-.42l44.82-21.06,6.19,3.67a3.93,3.93,0,0,0,3.38.12l16.79-8.47A1,1,0,0,0,998.34,231.9Z"/><path class="cls-8" d="M991.86,225.3a3.39,3.39,0,0,0-1.21-1.33l.73-7.71c.1-1-.6-1.55-1.57-1.12l-16.24,7.41a4.25,4.25,0,0,0-2.12,2.7l-1.57,8.08-44,24c-1.63.83-3.23,1-2.51,2.53L992,225.5Z"/></svg>